<svg width="18" height="19" viewBox="0 0 18 19" fill="none" xmlns="http://www.w3.org/2000/svg">
<path d="M10 4.26108C10 4.81336 9.55228 5.26108 9 5.26108C8.44772 5.26108 8 4.81336 8 4.26108C8 3.70879 8.44772 3.26108 9 3.26108C9.55228 3.26108 10 3.70879 10 4.26108ZM10.0316 0.335389C9.41698 -0.113098 8.58302 -0.113099 7.96843 0.335389L0.54657 5.75134C-0.430513 6.46435 0.0738213 8.01108 1.2834 8.01108H1.5L1.5 13.8109C0.609581 14.2661 0 15.1924 0 16.2611V17.7611C0 18.1753 0.335786 18.5111 0.75 18.5111H17.25C17.6642 18.5111 18 18.1753 18 17.7611V16.2611C18 15.1924 17.3904 14.2661 16.5 13.8109V8.01108H16.7166C17.9262 8.01108 18.4305 6.46435 17.4534 5.75134L10.0316 0.335389ZM8.85263 1.54708C8.94043 1.48301 9.05957 1.48301 9.14737 1.54708L15.9499 6.51108H2.05011L8.85263 1.54708ZM15 8.01108V13.5111H13V8.01108H15ZM11.5 8.01108V13.5111H9.75V8.01108H11.5ZM8.25 8.01108V13.5111H6.5L6.5 8.01108H8.25ZM2.75 15.0111H15.25C15.9404 15.0111 16.5 15.5707 16.5 16.2611V17.0111H1.5V16.2611C1.5 15.5707 2.05964 15.0111 2.75 15.0111ZM3 13.5111L3 8.01108H5L5 13.5111H3Z" fill="white"/>
</svg>
