<svg width="21" height="22" viewBox="0 0 21 22" fill="none" xmlns="http://www.w3.org/2000/svg">
<path d="M11.4089 0.522775C10.5053 0.156471 9.49466 0.156471 8.59111 0.522775L1.09252 3.56274C0.432107 3.83048 0 4.47192 0 5.18454V14.8372C0 15.5499 0.432107 16.1913 1.09252 16.459L8.59111 19.499C8.73155 19.5559 8.87458 19.604 9.01939 19.6433C9.02984 19.5687 9.04438 19.4937 9.06324 19.4183L9.52091 17.5876C9.68291 16.9396 10.018 16.3478 10.4903 15.8755L10.7503 15.6154V8.7754L18.5 5.78317V9.01781C19.0085 8.98451 19.5233 9.06893 20 9.27106V5.18454C20 4.47192 19.5679 3.83048 18.9075 3.56274L11.4089 0.522775ZM9.15466 1.91288C9.69679 1.6931 10.3032 1.6931 10.8453 1.91288L17.4376 4.58543L14.7684 5.61605L7.24097 2.68871L9.15466 1.91288ZM5.21472 3.51016L12.6917 6.41788L10.0013 7.45668L2.58967 4.57437L5.21472 3.51016ZM1.5 5.76004L9.25035 8.77407V18.1452C9.21825 18.1338 9.18635 18.1217 9.15466 18.1089L1.65607 15.0689C1.56173 15.0307 1.5 14.939 1.5 14.8372V5.76004ZM17.0999 10.6802L11.1974 16.5826C10.8533 16.9268 10.6092 17.358 10.4911 17.8301L10.0334 19.6608C9.83441 20.4569 10.5556 21.1781 11.3517 20.9791L13.1824 20.5214C13.6545 20.4033 14.0857 20.1592 14.4299 19.8151L20.3323 13.9126C21.2249 13.02 21.2249 11.5728 20.3323 10.6802C19.4397 9.78759 17.9925 9.78759 17.0999 10.6802Z" fill="white"/>
</svg>
