<svg width="20" height="20" viewBox="0 0 20 20" fill="none" xmlns="http://www.w3.org/2000/svg">
<path d="M14.4 0.610352C16.0568 0.610352 17.4 1.9535 17.4 3.61035V8.53C17.0198 8.33567 16.6183 8.17712 16.2 8.05879V5.41035H1.79998V14.4104C1.79998 15.4045 2.60586 16.2104 3.59998 16.2104H8.04842C8.16675 16.6287 8.3253 17.0302 8.51963 17.4104H3.59998C1.94312 17.4104 0.599976 16.0672 0.599976 14.4104V3.61035C0.599976 1.9535 1.94312 0.610352 3.59998 0.610352H14.4ZM14.4 1.81035H3.59998C2.60586 1.81035 1.79998 2.61624 1.79998 3.61035V4.21035H16.2V3.61035C16.2 2.61624 15.3941 1.81035 14.4 1.81035ZM13.65 12.0104C13.65 11.5961 13.9858 11.2604 14.4 11.2604C14.8142 11.2604 15.15 11.5961 15.15 12.0104C15.15 12.4246 14.8142 12.7604 14.4 12.7604C13.9858 12.7604 13.65 12.4246 13.65 12.0104ZM15 16.8104C15 17.1417 14.7313 17.4104 14.4 17.4104C14.0686 17.4104 13.8 17.1417 13.8 16.8104V14.4104C13.8 14.079 14.0686 13.8104 14.4 13.8104C14.7313 13.8104 15 14.079 15 14.4104V16.8104ZM8.99998 14.4104C8.99998 11.428 11.4176 9.01035 14.4 9.01035C17.3823 9.01035 19.8 11.428 19.8 14.4104C19.8 17.3927 17.3823 19.8104 14.4 19.8104C11.4176 19.8104 8.99998 17.3927 8.99998 14.4104ZM10.2 14.4104C10.2 16.7299 12.0804 18.6104 14.4 18.6104C16.7196 18.6104 18.6 16.7299 18.6 14.4104C18.6 12.0908 16.7196 10.2104 14.4 10.2104C12.0804 10.2104 10.2 12.0908 10.2 14.4104Z" fill="#F32034"/>
</svg>
