<svg width="20" height="17" viewBox="0 0 20 17" fill="none" xmlns="http://www.w3.org/2000/svg">
<path d="M17.75 0.0107422C18.9926 0.0107422 20 1.0181 20 2.26074V13.7653C20 15.008 18.9926 16.0153 17.75 16.0153H2.25C1.00736 16.0153 0 15.008 0 13.7653V2.26074C0 1.0181 1.00736 0.0107422 2.25 0.0107422H17.75ZM17.75 1.51074H2.25C1.83579 1.51074 1.5 1.84653 1.5 2.26074V13.7653C1.5 14.1795 1.83579 14.5153 2.25 14.5153H17.75C18.1642 14.5153 18.5 14.1795 18.5 13.7653V2.26074C18.5 1.84653 18.1642 1.51074 17.75 1.51074ZM7.75 8.51074C8.16421 8.51074 8.5 8.84653 8.5 9.26074V9.75347L8.4921 9.86202C8.32932 10.975 7.39767 11.5117 5.99995 11.5117C4.60213 11.5117 3.67048 10.9744 3.50787 9.86087L3.5 9.7525V9.26074C3.5 8.84653 3.83579 8.51074 4.25 8.51074H7.75ZM11.2523 9.00688H15.75C16.1642 9.00688 16.5 9.34267 16.5 9.75688C16.5 10.1366 16.2178 10.4504 15.8518 10.5L15.75 10.5069H11.2523C10.8381 10.5069 10.5023 10.1711 10.5023 9.75688C10.5023 9.37719 10.7844 9.06339 11.1505 9.01373L11.2523 9.00688H15.75H11.2523ZM6 4.51292C6.82841 4.51292 7.49997 5.18448 7.49997 6.0129C7.49997 6.84131 6.82841 7.51287 6 7.51287C5.17159 7.51287 4.50003 6.84131 4.50003 6.0129C4.50003 5.18448 5.17159 4.51292 6 4.51292ZM11.2523 5.51074H15.75C16.1642 5.51074 16.5 5.84653 16.5 6.26074C16.5 6.64044 16.2178 6.95423 15.8518 7.0039L15.75 7.01074H11.2523C10.8381 7.01074 10.5023 6.67496 10.5023 6.26074C10.5023 5.88105 10.7844 5.56725 11.1505 5.51759L11.2523 5.51074H15.75H11.2523Z" fill="white"/>
</svg>
