<svg width="24" height="25" viewBox="0 0 24 25" fill="none" xmlns="http://www.w3.org/2000/svg">
<path d="M7.20002 12.0104C7.20002 11.679 7.46865 11.4104 7.80002 11.4104H11.4V7.8104C11.4 7.47903 11.6687 7.2104 12 7.2104C12.3314 7.2104 12.6 7.47903 12.6 7.8104V11.4104H16.2C16.5314 11.4104 16.8 11.679 16.8 12.0104C16.8 12.3418 16.5314 12.6104 16.2 12.6104H12.6V16.2104C12.6 16.5418 12.3314 16.8104 12 16.8104C11.6687 16.8104 11.4 16.5418 11.4 16.2104V12.6104H7.80002C7.46865 12.6104 7.20002 12.3418 7.20002 12.0104ZM12 21.6104C17.302 21.6104 21.6 17.3123 21.6 12.0104C21.6 6.70847 17.302 2.4104 12 2.4104C6.69809 2.4104 2.40002 6.70847 2.40002 12.0104C2.40002 17.3123 6.69809 21.6104 12 21.6104ZM12 20.4104C7.36083 20.4104 3.60002 16.6496 3.60002 12.0104C3.60002 7.37121 7.36083 3.6104 12 3.6104C16.6392 3.6104 20.4 7.37121 20.4 12.0104C20.4 16.6496 16.6392 20.4104 12 20.4104Z" fill="white"/>
</svg>
