<svg width="24" height="25" viewBox="0 0 24 25" fill="none" xmlns="http://www.w3.org/2000/svg">
<path d="M12 2.01074C17.5228 2.01074 22 6.48789 22 12.0107C22 17.5336 17.5228 22.0107 12 22.0107C6.47715 22.0107 2 17.5336 2 12.0107C2 6.48789 6.47715 2.01074 12 2.01074ZM12 7.01074C11.6203 7.01074 11.3065 7.2929 11.2568 7.65897L11.25 7.76074V11.2607H7.75C7.33579 11.2607 7 11.5965 7 12.0107C7 12.3904 7.28215 12.7042 7.64823 12.7539L7.75 12.7607H11.25V16.2607C11.25 16.675 11.5858 17.0107 12 17.0107C12.3797 17.0107 12.6935 16.7286 12.7432 16.3625L12.75 16.2607V12.7607H16.25C16.6642 12.7607 17 12.425 17 12.0107C17 11.631 16.7178 11.3173 16.3518 11.2676L16.25 11.2607H12.75V7.76074C12.75 7.34653 12.4142 7.01074 12 7.01074Z" fill="#F32034"/>
</svg>
