<svg width="24" height="25" viewBox="0 0 24 25" fill="none" xmlns="http://www.w3.org/2000/svg">
<path d="M10.5911 2.52253C11.4947 2.15623 12.5053 2.15623 13.4089 2.52253L20.9075 5.5625C21.5679 5.83023 22 6.47168 22 7.18429V16.837C22 17.5496 21.5679 18.1911 20.9075 18.4588L13.4089 21.4988C12.5053 21.8651 11.4947 21.8651 10.5911 21.4988L3.09252 18.4588C2.43211 18.1911 2 17.5496 2 16.837V7.18429C2 6.47168 2.43211 5.83023 3.09252 5.5625L10.5911 2.52253ZM12.8453 3.91264C12.3032 3.69286 11.6968 3.69286 11.1547 3.91264L9.24097 4.68846L16.7678 7.61556L19.437 6.58494L12.8453 3.91264ZM14.6911 8.41739L7.21472 5.50991L4.59029 6.57387L12.0013 9.45594L14.6911 8.41739ZM3.5 16.837C3.5 16.9388 3.56173 17.0304 3.65607 17.0687L11.1547 20.1087C11.1863 20.1215 11.2183 20.1336 11.2503 20.1449V10.7733L3.5 7.75931V16.837ZM12.8453 20.1087L20.3439 17.0687C20.4383 17.0304 20.5 16.9388 20.5 16.837V7.78244L12.7503 10.7747V20.1447C12.7822 20.1334 12.8139 20.1214 12.8453 20.1087Z" fill="white"/>
</svg>
