<svg width="24" height="25" viewBox="0 0 24 25" fill="none" xmlns="http://www.w3.org/2000/svg">
<path d="M13.4089 2.52277C12.5053 2.15647 11.4947 2.15647 10.5911 2.52277L8.40058 3.41083L17.9928 7.14113L21.3671 5.8374C21.2312 5.72467 21.0769 5.63141 20.9075 5.56274L13.4089 2.52277ZM22 7.20095L12.7498 10.7749V21.698C12.9736 21.6524 13.1943 21.586 13.4089 21.499L20.9075 18.459C21.5679 18.1913 22 17.5499 22 16.8372V7.20095ZM11.2498 21.6979V10.7749L2 7.20111V16.8372C2 17.5499 2.43211 18.1913 3.09252 18.459L10.5911 21.499C10.8056 21.586 11.0261 21.6523 11.2498 21.6979ZM2.63273 5.83751L11.9998 9.4566L15.9168 7.94322L6.37434 4.23228L3.09252 5.56274C2.92308 5.63143 2.76867 5.72473 2.63273 5.83751Z" fill="#F32034"/>
</svg>
