<svg width="24" height="25" viewBox="0 0 24 25" fill="none" xmlns="http://www.w3.org/2000/svg">
<path d="M8.5 5.24048C8.5 3.99784 9.50736 2.99048 10.75 2.99048H13.25C14.4926 2.99048 15.5 3.99784 15.5 5.24048V7.01048H18.75C19.9926 7.01048 21 8.01783 21 9.26048V20.2605C21 20.6747 20.6642 21.0105 20.25 21.0105H3.75C3.33579 21.0105 3 20.6747 3 20.2605V12.2605C3 11.0178 4.00736 10.0105 5.25 10.0105H8.5V5.24048ZM10 19.5105H14V5.24048C14 4.82626 13.6642 4.49048 13.25 4.49048H10.75C10.3358 4.49048 10 4.82626 10 5.24048V19.5105ZM8.5 11.5105H5.25C4.83579 11.5105 4.5 11.8463 4.5 12.2605V19.5105H8.5V11.5105ZM15.5 19.5105H19.5V9.26048C19.5 8.84626 19.1642 8.51048 18.75 8.51048H15.5V19.5105Z" fill="white"/>
</svg>
