<svg width="24" height="25" viewBox="0 0 24 25" fill="none" xmlns="http://www.w3.org/2000/svg">
<path d="M9 5.24121C9 3.99857 10.0074 2.99121 11.25 2.99121H12.75C13.9926 2.99121 15 3.99857 15 5.24121V21.0112C13.0251 21.0112 11.0084 21.0112 9 21.0112V5.24121ZM7.5 10.0112H5.25C4.00736 10.0112 3 11.0186 3 12.2612V20.2612C3 20.6754 3.33579 21.0112 3.75 21.0112H7.5V10.0112ZM16.5 21.0112H20.25C20.6642 21.0112 21 20.6754 21 20.2612V9.26121C21 8.01857 19.9926 7.01121 18.75 7.01121H16.5V21.0112Z" fill="#F32034"/>
</svg>
