<svg width="24" height="25" viewBox="0 0 24 25" fill="none" xmlns="http://www.w3.org/2000/svg">
<path d="M10.5495 2.54264C11.3874 1.83605 12.6126 1.83605 13.4505 2.54264L20.2005 8.23475C20.7074 8.66226 21 9.29164 21 9.9548L21 19.2646C21 20.2311 20.2165 21.0146 19.25 21.0146H15.75C14.7835 21.0146 14 20.2311 14 19.2646L14 14.2576C14 14.1195 13.8881 14.0076 13.75 14.0076H10.25C10.1119 14.0076 9.99999 14.1195 9.99999 14.2576L9.99999 19.2646C9.99999 20.2311 9.2165 21.0146 8.25 21.0146H4.75C3.7835 21.0146 3 20.2311 3 19.2646V9.9548C3 9.29165 3.29255 8.66226 3.79952 8.23475L10.5495 2.54264ZM12.4835 3.68934C12.2042 3.45381 11.7958 3.45381 11.5165 3.68934L4.76651 9.38145C4.59752 9.52396 4.5 9.73375 4.5 9.9548L4.5 19.2646C4.5 19.4027 4.61193 19.5146 4.75 19.5146H8.25C8.38807 19.5146 8.49999 19.4027 8.49999 19.2646L8.49999 14.2576C8.49999 13.2911 9.2835 12.5076 10.25 12.5076H13.75C14.7165 12.5076 15.5 13.2911 15.5 14.2576L15.5 19.2646C15.5 19.4027 15.6119 19.5146 15.75 19.5146H19.25C19.3881 19.5146 19.5 19.4027 19.5 19.2646L19.5 9.9548C19.5 9.73375 19.4025 9.52396 19.2335 9.38145L12.4835 3.68934Z" fill="white"/>
</svg>
