<svg width="24" height="25" viewBox="0 0 24 25" fill="none" xmlns="http://www.w3.org/2000/svg">
<path d="M13.4508 2.54368C12.6128 1.83668 11.3872 1.83668 10.5492 2.54367L3.79916 8.23821C3.29241 8.66573 3 9.29497 3 9.95797V19.2631C3 20.2296 3.7835 21.0131 4.75 21.0131H7.75C8.7165 21.0131 9.5 20.2296 9.5 19.2631V15.2605C9.5 14.5812 10.0418 14.0285 10.7169 14.0109H13.2831C13.9582 14.0285 14.5 14.5812 14.5 15.2605V19.2631C14.5 20.2296 15.2835 21.0131 16.25 21.0131H19.25C20.2165 21.0131 21 20.2296 21 19.2631V9.95797C21 9.29497 20.7076 8.66573 20.2008 8.23821L13.4508 2.54368Z" fill="#F32034"/>
</svg>
