<svg width="24" height="25" viewBox="0 0 24 25" fill="none" xmlns="http://www.w3.org/2000/svg">
<path d="M4 6.5105C4 6.23436 4.22386 6.0105 4.5 6.0105H19.5C19.7761 6.0105 20 6.23436 20 6.5105C20 6.78664 19.7761 7.0105 19.5 7.0105H4.5C4.22386 7.0105 4 6.78664 4 6.5105ZM4 11.5105C4 11.2344 4.22386 11.0105 4.5 11.0105H19.5C19.7761 11.0105 20 11.2344 20 11.5105C20 11.7866 19.7761 12.0105 19.5 12.0105H4.5C4.22386 12.0105 4 11.7866 4 11.5105ZM4.5 16.0105C4.22386 16.0105 4 16.2344 4 16.5105C4 16.7866 4.22386 17.0105 4.5 17.0105H19.5C19.7761 17.0105 20 16.7866 20 16.5105C20 16.2344 19.7761 16.0105 19.5 16.0105H4.5Z" fill="white"/>
</svg>
