<svg width="24" height="25" viewBox="0 0 24 25" fill="none" xmlns="http://www.w3.org/2000/svg">
<path d="M7.19998 3.6106C5.21175 3.6106 3.59998 5.22237 3.59998 7.2106V16.8106C3.59998 18.7988 5.21175 20.4106 7.19998 20.4106H11.5196C11.3253 20.0304 11.1667 19.629 11.0484 19.2106H7.19998C5.87449 19.2106 4.79998 18.1361 4.79998 16.8106V8.4106H19.2V11.059C19.6183 11.1774 20.0198 11.3359 20.4 11.5302V7.2106C20.4 5.22237 18.7882 3.6106 16.8 3.6106H7.19998ZM4.79998 7.2106C4.79998 5.88511 5.87449 4.8106 7.19998 4.8106H16.8C18.1255 4.8106 19.2 5.88511 19.2 7.2106L4.79998 7.2106ZM14.4777 13.7409C14.8416 15.0383 14.0664 16.381 12.7609 16.7145L12.2076 16.8558C12.1897 17.0382 12.1804 17.2232 12.1804 17.4104C12.1804 17.6356 12.1938 17.8576 12.2196 18.0755L12.6391 18.1747C13.9824 18.4923 14.7816 19.8749 14.3864 21.1974L14.2348 21.7048C14.5434 21.9487 14.8791 22.1577 15.2364 22.3263L15.6264 21.9133C16.5742 20.9098 18.1711 20.9106 19.1178 21.9152L19.5226 22.3447C19.8735 22.1828 20.204 21.982 20.5089 21.7476L20.3215 21.0796C19.9575 19.7822 20.7327 18.4396 22.0383 18.106L22.5909 17.9649C22.6089 17.7826 22.6181 17.5976 22.6181 17.4104C22.6181 17.1851 22.6047 16.963 22.5788 16.7449L22.16 16.6459C20.8167 16.3282 20.0175 14.9457 20.4127 13.6231L20.5642 13.1164C20.2555 12.8724 19.9197 12.6633 19.5624 12.4947L19.1728 12.9072C18.225 13.9108 16.6281 13.9099 15.6814 12.9054L15.2765 12.4758C14.9256 12.6377 14.5951 12.8384 14.2902 13.0728L14.4777 13.7409ZM17.3993 18.6104C16.7365 18.6104 16.1993 18.0732 16.1993 17.4104C16.1993 16.7477 16.7365 16.2104 17.3993 16.2104C18.062 16.2104 18.5993 16.7477 18.5993 17.4104C18.5993 18.0732 18.062 18.6104 17.3993 18.6104Z" fill="white"/>
</svg>
