<svg width="28" height="28" viewBox="0 0 28 28" fill="none" xmlns="http://www.w3.org/2000/svg">
<path d="M12.118 9.7474C12.4968 9.7474 12.8038 9.44037 12.8038 9.06163C12.8038 8.6829 12.4968 8.37587 12.118 8.37587C11.7393 8.37587 11.4323 8.6829 11.4323 9.06163C11.4323 9.44037 11.7393 9.7474 12.118 9.7474ZM12.8038 12.4905C12.8038 12.8692 12.4968 13.1762 12.118 13.1762C11.7393 13.1762 11.4323 12.8692 11.4323 12.4905C11.4323 12.1117 11.7393 11.8047 12.118 11.8047C12.4968 11.8047 12.8038 12.1117 12.8038 12.4905ZM12.118 16.605C12.4968 16.605 12.8038 16.298 12.8038 15.9193C12.8038 15.5405 12.4968 15.2335 12.118 15.2335C11.7393 15.2335 11.4323 15.5405 11.4323 15.9193C11.4323 16.298 11.7393 16.605 12.118 16.605ZM15.5468 9.06163C15.5468 9.44037 15.2398 9.7474 14.8611 9.7474C14.4823 9.7474 14.1753 9.44037 14.1753 9.06163C14.1753 8.6829 14.4823 8.37587 14.8611 8.37587C15.2398 8.37587 15.5468 8.6829 15.5468 9.06163ZM14.8611 13.1762C15.2398 13.1762 15.5468 12.8692 15.5468 12.4905C15.5468 12.1117 15.2398 11.8047 14.8611 11.8047C14.4823 11.8047 14.1753 12.1117 14.1753 12.4905C14.1753 12.8692 14.4823 13.1762 14.8611 13.1762ZM15.5468 15.9193C15.5468 16.298 15.2398 16.605 14.8611 16.605C14.4823 16.605 14.1753 16.298 14.1753 15.9193C14.1753 15.5405 14.4823 15.2335 14.8611 15.2335C15.2398 15.2335 15.5468 15.5405 15.5468 15.9193ZM17.6041 16.605C17.9829 16.605 18.2899 16.298 18.2899 15.9193C18.2899 15.5405 17.9829 15.2335 17.6041 15.2335C17.2254 15.2335 16.9184 15.5405 16.9184 15.9193C16.9184 16.298 17.2254 16.605 17.6041 16.605ZM10.7465 5.63281C9.61029 5.63281 8.68921 6.55389 8.68921 7.6901V21.4054C8.68921 21.7841 8.99624 22.0911 9.37497 22.0911H20.3472C20.7259 22.0911 21.033 21.7841 21.033 21.4054V14.5477C21.033 13.4115 20.1119 12.4905 18.9757 12.4905H18.2899V7.6901C18.2899 6.55389 17.3688 5.63281 16.2326 5.63281H10.7465ZM10.0607 7.6901C10.0607 7.31137 10.3678 7.00434 10.7465 7.00434H16.2326C16.6113 7.00434 16.9184 7.31137 16.9184 7.6901V13.1762C16.9184 13.555 17.2254 13.862 17.6041 13.862H18.9757C19.3544 13.862 19.6614 14.169 19.6614 14.5477V20.7196H18.2899V18.6623C18.2899 18.2836 17.9829 17.9766 17.6041 17.9766H12.118C11.7393 17.9766 11.4323 18.2836 11.4323 18.6623V20.7196H10.0607V7.6901ZM16.9184 19.3481V20.7196H15.5503V19.3481H16.9184ZM14.1788 19.3481V20.7196H12.8038V19.3481H14.1788Z" fill="#666666"/>
</svg>
