<svg width="28" height="28" viewBox="0 0 28 28" fill="none" xmlns="http://www.w3.org/2000/svg">
<path d="M8.29621 10.1044C8.03485 8.38141 9.25086 6.83 11.11 6.26143C11.7946 6.05204 12.524 6.4114 12.7752 7.08186L13.3712 8.6728C13.5674 9.19643 13.426 9.78672 13.014 10.1647L11.2412 11.7907C11.0637 11.9536 10.9849 12.1987 11.0332 12.4347L11.0489 12.5064C11.0587 12.5492 11.0732 12.6097 11.0926 12.6854C11.1315 12.8366 11.1906 13.0493 11.2734 13.3025C11.4382 13.8063 11.7009 14.4838 12.0918 15.1608C12.4827 15.8379 12.9381 16.4042 13.292 16.7987C13.4698 16.9971 13.6245 17.1546 13.736 17.2639C13.7918 17.3186 13.8371 17.3613 13.8692 17.3912L13.9243 17.4415C14.1045 17.6013 14.3554 17.6548 14.5851 17.5825L16.8797 16.8603C17.413 16.6924 17.9949 16.8652 18.3503 17.2969L19.4358 18.6155C19.8877 19.1643 19.8345 19.9699 19.3146 20.4547C17.8921 21.7809 15.9364 22.0525 14.575 20.9587C13.2626 19.9041 11.7181 18.337 10.4278 16.119C9.13453 13.8957 8.54899 11.7709 8.29621 10.1044ZM12.4698 12.5249L13.9411 11.1754C14.7652 10.4195 15.0479 9.23889 14.6556 8.19164L14.0595 6.60069C13.5541 5.25164 12.0865 4.52854 10.7088 4.94987C8.40106 5.65566 6.54807 7.72508 6.9402 10.3101C7.21405 12.1155 7.84744 14.4108 9.24228 16.8086C10.6315 19.1967 12.2965 20.8873 13.7159 22.0278C15.756 23.667 18.4808 23.1072 20.2499 21.4579C21.2999 20.4789 21.4071 18.8521 20.4947 17.7438L19.4092 16.4252C18.6984 15.5618 17.5346 15.2163 16.4679 15.552L14.5636 16.1514C14.4904 16.0761 14.4055 15.9861 14.313 15.883C14.0001 15.5341 13.6087 15.0452 13.2796 14.4751C12.9504 13.905 12.7227 13.3216 12.577 12.8762C12.5339 12.7444 12.4984 12.626 12.4698 12.5249Z" fill="#666666"/>
</svg>
