<svg width="14" height="15" viewBox="0 0 14 15" fill="none" xmlns="http://www.w3.org/2000/svg">
<path d="M5.96387 2.23633H7.96387C7.96387 1.68404 7.51615 1.23633 6.96387 1.23633C6.41158 1.23633 5.96387 1.68404 5.96387 2.23633ZM4.96387 2.23633C4.96387 1.13176 5.8593 0.236328 6.96387 0.236328C8.06844 0.236328 8.96387 1.13176 8.96387 2.23633H12.9639C13.24 2.23633 13.4639 2.46019 13.4639 2.73633C13.4639 3.01247 13.24 3.23633 12.9639 3.23633H12.4003L11.1952 12.0741C11.0262 13.3128 9.96826 14.2363 8.71809 14.2363H5.20965C3.95947 14.2363 2.90149 13.3128 2.73257 12.0741L1.52742 3.23633H0.963867C0.687725 3.23633 0.463867 3.01247 0.463867 2.73633C0.463867 2.46019 0.687725 2.23633 0.963867 2.23633H4.96387ZM5.96387 5.73633C5.96387 5.46019 5.74001 5.23633 5.46387 5.23633C5.18772 5.23633 4.96387 5.46019 4.96387 5.73633V10.7363C4.96387 11.0125 5.18772 11.2363 5.46387 11.2363C5.74001 11.2363 5.96387 11.0125 5.96387 10.7363V5.73633ZM8.46387 5.23633C8.74001 5.23633 8.96387 5.46019 8.96387 5.73633V10.7363C8.96387 11.0125 8.74001 11.2363 8.46387 11.2363C8.18772 11.2363 7.96387 11.0125 7.96387 10.7363V5.73633C7.96387 5.46019 8.18772 5.23633 8.46387 5.23633ZM3.7234 11.939C3.82475 12.6822 4.45954 13.2363 5.20965 13.2363H8.71809C9.46819 13.2363 10.103 12.6822 10.2043 11.939L11.3911 3.23633H2.53668L3.7234 11.939Z" fill="#666666"/>
</svg>
