<svg width="28" height="28" viewBox="0 0 28 28" fill="none" xmlns="http://www.w3.org/2000/svg">
<path d="M10.8838 14.9609C11.4897 14.9609 11.981 14.4697 11.981 13.8637C11.981 13.2577 11.4897 12.7665 10.8838 12.7665C10.2778 12.7665 9.78654 13.2577 9.78654 13.8637C9.78654 14.4697 10.2778 14.9609 10.8838 14.9609ZM14.1754 14.9609C14.7814 14.9609 15.2727 14.4697 15.2727 13.8637C15.2727 13.2577 14.7814 12.7665 14.1754 12.7665C13.5694 12.7665 13.0782 13.2577 13.0782 13.8637C13.0782 14.4697 13.5694 14.9609 14.1754 14.9609ZM18.5643 13.8637C18.5643 14.4697 18.0731 14.9609 17.4671 14.9609C16.8611 14.9609 16.3699 14.4697 16.3699 13.8637C16.3699 13.2577 16.8611 12.7665 17.4671 12.7665C18.0731 12.7665 18.5643 13.2577 18.5643 13.8637ZM10.8838 18.2526C11.4897 18.2526 11.981 17.7614 11.981 17.1554C11.981 16.5494 11.4897 16.0582 10.8838 16.0582C10.2778 16.0582 9.78654 16.5494 9.78654 17.1554C9.78654 17.7614 10.2778 18.2526 10.8838 18.2526ZM15.2727 17.1554C15.2727 17.7614 14.7814 18.2526 14.1754 18.2526C13.5694 18.2526 13.0782 17.7614 13.0782 17.1554C13.0782 16.5494 13.5694 16.0582 14.1754 16.0582C14.7814 16.0582 15.2727 16.5494 15.2727 17.1554ZM17.4671 18.2526C18.0731 18.2526 18.5643 17.7614 18.5643 17.1554C18.5643 16.5494 18.0731 16.0582 17.4671 16.0582C16.8611 16.0582 16.3699 16.5494 16.3699 17.1554C16.3699 17.7614 16.8611 18.2526 17.4671 18.2526ZM13.0755 5.50762C13.7011 4.94538 14.6498 4.94538 15.2754 5.50762L21.3101 10.9311C21.6575 11.2434 21.856 11.6886 21.856 12.1558V19.898C21.856 20.8072 21.1191 21.5443 20.2102 21.5443H8.14071C7.23174 21.5443 6.49487 20.8072 6.49487 19.898V12.1558C6.49487 11.6886 6.69332 11.2434 7.04074 10.9311L13.0755 5.50762ZM14.5421 6.32404C14.3335 6.13662 14.0173 6.13662 13.8088 6.32404L7.77405 11.7476C7.65824 11.8516 7.5921 12 7.5921 12.1558V19.898C7.5921 20.201 7.83772 20.4467 8.14071 20.4467H20.2102C20.5131 20.4467 20.7588 20.201 20.7588 19.898V12.1558C20.7588 12 20.6926 11.8516 20.5768 11.7476L14.5421 6.32404Z" fill="#666666"/>
</svg>
