<svg width="13" height="12" viewBox="0 0 13 12" fill="none" xmlns="http://www.w3.org/2000/svg">
<path d="M6.90997 0.5C9.39525 0.5 11.41 2.51472 11.41 5C11.41 6.86262 9.99017 8.81485 7.20997 10.9C7.0322 11.0333 6.78775 11.0333 6.60997 10.9C3.82978 8.81485 2.40997 6.86262 2.40997 5C2.40997 2.51472 4.42469 0.5 6.90997 0.5ZM6.90997 3.5C6.08155 3.5 5.40997 4.17157 5.40997 5C5.40997 5.82843 6.08155 6.5 6.90997 6.5C7.7384 6.5 8.40997 5.82843 8.40997 5C8.40997 4.17157 7.7384 3.5 6.90997 3.5Z" fill="#188B54"/>
</svg>
