<svg width="28" height="28" viewBox="0 0 28 28" fill="none" xmlns="http://www.w3.org/2000/svg">
<path d="M16.2326 12.4928C16.2326 11.3566 15.3115 10.4355 14.1753 10.4355C13.0391 10.4355 12.118 11.3566 12.118 12.4928C12.118 13.629 13.0391 14.5501 14.1753 14.5501C15.3115 14.5501 16.2326 13.629 16.2326 12.4928ZM22.4045 12.4928C22.4045 16.4345 18.1565 20.7443 15.7647 22.8585C14.8481 23.6688 13.5026 23.6688 12.5859 22.8585C10.1941 20.7443 5.94617 16.4345 5.94617 12.4928C5.94617 7.948 9.63049 4.26367 14.1753 4.26367C18.7202 4.26367 22.4045 7.948 22.4045 12.4928ZM21.033 12.4928C21.033 8.70547 17.9627 5.6352 14.1753 5.6352C10.388 5.6352 7.31769 8.70547 7.31769 12.4928C7.31769 14.0131 8.1607 15.7781 9.47061 17.5437C10.7515 19.2703 12.3333 20.8046 13.4943 21.8309C13.8922 22.1826 14.4585 22.1826 14.8564 21.8309C16.0174 20.8046 17.5991 19.2703 18.8801 17.5437C20.19 15.7781 21.033 14.0131 21.033 12.4928Z" fill="#666666"/>
</svg>
