<svg width="28" height="29" viewBox="0 0 28 29" fill="none" xmlns="http://www.w3.org/2000/svg">
<path d="M13.1933 9.99146C13.4895 10.0549 13.6782 10.3466 13.6148 10.6428L13.2867 12.1736H16.0041L16.3812 10.413C16.4447 10.1167 16.7363 9.92799 17.0325 9.99145C17.3288 10.0549 17.5176 10.3465 17.4541 10.6428L17.1262 12.1736H18.0157C18.3187 12.1736 18.5643 12.4192 18.5643 12.7222C18.5643 13.0252 18.3187 13.2708 18.0157 13.2708H16.8912L16.4212 15.4653H17.4671C17.7701 15.4653 18.0157 15.7109 18.0157 16.0139C18.0157 16.3169 17.7701 16.5625 17.4671 16.5625H16.1862L15.8092 18.3228C15.7458 18.6191 15.4541 18.8078 15.1579 18.7444C14.8616 18.6809 14.6729 18.3893 14.7363 18.093L15.0641 16.5625H12.3463L11.9689 18.3234C11.9054 18.6197 11.6138 18.8084 11.3175 18.7449C11.0213 18.6814 10.8326 18.3898 10.8961 18.0935L11.2241 16.5625H10.3352C10.0322 16.5625 9.78654 16.3169 9.78654 16.0139C9.78654 15.7109 10.0322 15.4653 10.3352 15.4653H11.4592L11.9295 13.2708H10.8838C10.5808 13.2708 10.3352 13.0252 10.3352 12.7222C10.3352 12.4192 10.5808 12.1736 10.8838 12.1736H12.1646L12.5419 10.4129C12.6054 10.1167 12.897 9.92797 13.1933 9.99146ZM12.5814 15.4653H15.2991L15.7691 13.2708H13.0516L12.5814 15.4653ZM6.49487 9.43056C6.49487 7.91561 7.72298 6.6875 9.23793 6.6875H19.1129C20.6279 6.6875 21.856 7.91561 21.856 9.43056V19.3056C21.856 20.8205 20.6279 22.0486 19.1129 22.0486H9.23793C7.72298 22.0486 6.49487 20.8205 6.49487 19.3056V9.43056ZM9.23793 7.78472C8.32896 7.78472 7.5921 8.52159 7.5921 9.43056V19.3056C7.5921 20.2145 8.32896 20.9514 9.23793 20.9514H19.1129C20.0219 20.9514 20.7588 20.2145 20.7588 19.3056V9.43056C20.7588 8.52159 20.0219 7.78472 19.1129 7.78472H9.23793Z" fill="#666666"/>
</svg>
