<svg width="28" height="28" viewBox="0 0 28 28" fill="none" xmlns="http://www.w3.org/2000/svg">
<path d="M18.9757 13.8642C20.1119 13.8642 21.033 14.7852 21.033 15.9214V16.6072C21.033 19.3111 18.4827 22.0933 14.1754 22.0933C9.86812 22.0933 7.31775 19.3111 7.31775 16.6072V15.9214C7.31775 14.7852 8.23883 13.8642 9.37504 13.8642H18.9757ZM18.9757 15.2357H9.37504C8.9963 15.2357 8.68928 15.5427 8.68928 15.9214V16.6072C8.68928 18.579 10.6535 20.7218 14.1754 20.7218C17.6973 20.7218 19.6615 18.579 19.6615 16.6072V15.9214C19.6615 15.5427 19.3545 15.2357 18.9757 15.2357ZM14.1754 4.94922C16.2584 4.94922 17.9471 6.63787 17.9471 8.72092C17.9471 10.804 16.2584 12.4926 14.1754 12.4926C12.0923 12.4926 10.4037 10.804 10.4037 8.72092C10.4037 6.63787 12.0923 4.94922 14.1754 4.94922ZM14.1754 6.32075C12.8498 6.32075 11.7752 7.39534 11.7752 8.72092C11.7752 10.0465 12.8498 11.1211 14.1754 11.1211C15.501 11.1211 16.5756 10.0465 16.5756 8.72092C16.5756 7.39534 15.501 6.32075 14.1754 6.32075Z" fill="#666666"/>
</svg>
