<svg width="13" height="12" viewBox="0 0 13 12" fill="none" xmlns="http://www.w3.org/2000/svg">
<path d="M6.90997 1C5.8054 1 4.90997 1.89543 4.90997 3C4.90997 4.10457 5.8054 5 6.90997 5C8.01454 5 8.90997 4.10457 8.90997 3C8.90997 1.89543 8.01454 1 6.90997 1ZM9.40997 6L4.40995 6C3.58154 6 2.90997 6.67161 2.90997 7.5C2.90997 8.61608 3.36894 9.51027 4.12212 10.1148C4.86339 10.7098 5.8569 11 6.90997 11C7.96305 11 8.95655 10.7098 9.69782 10.1148C10.451 9.51027 10.91 8.61608 10.91 7.5C10.91 6.67157 10.2384 6 9.40997 6Z" fill="#666666"/>
</svg>
