<svg width="11" height="14" viewBox="0 0 11 14" fill="none" xmlns="http://www.w3.org/2000/svg">
<path d="M2.23246 7.43325C2.23246 6.71564 2.81419 6.13391 3.5318 6.13391H7.86294C8.58055 6.13391 9.16228 6.71564 9.16228 7.43325V10.8982C9.16228 11.6158 8.58054 12.1975 7.86294 12.1975H3.5318C2.81419 12.1975 2.23246 11.6158 2.23246 10.8982V7.43325ZM3.96491 11.3313V9.59882H3.09868V10.8982C3.09868 11.1374 3.2926 11.3313 3.5318 11.3313H3.96491ZM4.83114 8.73259H8.29605V7.43325C8.29605 7.19405 8.10214 7.00014 7.86294 7.00014H4.83114V8.73259ZM4.83114 11.3313H7.86294C8.10214 11.3313 8.29605 11.1374 8.29605 10.8982V9.59882H4.83114V11.3313ZM3.5318 7.00014C3.2926 7.00014 3.09868 7.19405 3.09868 7.43325V8.73259H3.96491V7.00014H3.5318ZM2.23246 0.0703125C1.27565 0.0703125 0.5 0.84596 0.5 1.80277V12.1975C0.5 13.1543 1.27565 13.93 2.23246 13.93H9.16228C10.1191 13.93 10.8947 13.1543 10.8947 12.1975V4.76026C10.8947 4.41565 10.7578 4.08516 10.5142 3.84148L7.12357 0.450881C6.87989 0.207207 6.5494 0.0703125 6.20479 0.0703125H2.23246ZM1.36623 1.80277C1.36623 1.32436 1.75405 0.936541 2.23246 0.936541H5.69737V3.96834C5.69737 4.68595 6.2791 5.26768 6.99671 5.26768H10.0285V12.1975C10.0285 12.6759 9.64069 13.0637 9.16228 13.0637H2.23246C1.75405 13.0637 1.36623 12.6759 1.36623 12.1975V1.80277ZM9.84911 4.40145H6.99671C6.75751 4.40145 6.5636 4.20754 6.5636 3.96834V1.11594L9.84911 4.40145Z" fill="#F7F7F7"/>
</svg>
