<svg width="11" height="14" viewBox="0 0 11 14" fill="none" xmlns="http://www.w3.org/2000/svg">
<path d="M1.46387 12.2363H10.4639C10.74 12.2363 10.9639 12.4602 10.9639 12.7363C10.9639 12.9818 10.787 13.1859 10.5537 13.2283L10.4639 13.2363H1.46387C1.18772 13.2363 0.963867 13.0125 0.963867 12.7363C0.963867 12.4909 1.14074 12.2867 1.37399 12.2444L1.46387 12.2363H10.4639H1.46387ZM5.87399 0.244384L5.96387 0.236328C6.20933 0.236328 6.41348 0.413203 6.45581 0.646453L6.46387 0.736328V9.52833L9.14585 6.84724C9.31941 6.67367 9.58884 6.65439 9.78371 6.78939L9.85295 6.84724C10.0265 7.02081 10.0458 7.29023 9.91081 7.4851L9.85295 7.55435L6.31742 11.0899C6.14385 11.2634 5.87443 11.2827 5.67956 11.1477L5.61031 11.0899L2.07478 7.55435C1.87952 7.35909 1.87952 7.0425 2.07478 6.84724C2.24835 6.67367 2.51777 6.65439 2.71264 6.78939L2.78189 6.84724L5.46387 9.52833V0.736328C5.46387 0.490868 5.64074 0.28672 5.87399 0.244384L5.96387 0.236328L5.87399 0.244384Z" fill="#666666"/>
</svg>
