<svg width="13" height="9" viewBox="0 0 13 9" fill="none" xmlns="http://www.w3.org/2000/svg">
<path d="M1.40339 4.86103L1.40241 4.86448C1.33145 5.13113 1.05773 5.29037 0.790964 5.21963C0.359924 5.10539 0.43581 4.60819 0.43581 4.60819L0.453475 4.5468C0.453475 4.5468 0.479579 4.46269 0.500608 4.40163C0.542632 4.27962 0.606897 4.10906 0.698254 3.9061C0.880484 3.50126 1.17338 2.9611 1.61771 2.41927C2.51524 1.32483 4.02404 0.236328 6.41911 0.236328C8.81418 0.236328 10.323 1.32483 11.2205 2.41927C11.6648 2.9611 11.9577 3.50126 12.14 3.9061C12.2313 4.10906 12.2956 4.27962 12.3376 4.40163C12.3586 4.46269 12.3742 4.51174 12.3847 4.5468C12.39 4.56433 12.3941 4.57837 12.397 4.58868L12.4006 4.60132L12.4017 4.60549L12.4021 4.60702L12.4024 4.60819C12.4732 4.87511 12.3142 5.14886 12.0473 5.21963C11.7807 5.2903 11.5074 5.13188 11.4361 4.8657L11.4358 4.86448L11.4348 4.86103L11.4275 4.83603C11.4204 4.81249 11.4088 4.7756 11.3921 4.72728C11.3588 4.63054 11.3055 4.4886 11.2281 4.31656C11.0727 3.9714 10.823 3.51156 10.4473 3.05339C9.70464 2.14783 8.46344 1.23633 6.41911 1.23633C4.37478 1.23633 3.13358 2.14783 2.39095 3.05339C2.01522 3.51156 1.7655 3.9714 1.61013 4.31656C1.53269 4.4886 1.47942 4.63054 1.4461 4.72728C1.42946 4.7756 1.41785 4.81249 1.41073 4.83603L1.40339 4.86103ZM6.41919 3.23633C5.03848 3.23633 3.91919 4.35562 3.91919 5.73633C3.91919 7.11704 5.03848 8.23633 6.41919 8.23633C7.7999 8.23633 8.91919 7.11704 8.91919 5.73633C8.91919 4.35562 7.7999 3.23633 6.41919 3.23633ZM4.91919 5.73633C4.91919 4.9079 5.59076 4.23633 6.41919 4.23633C7.24762 4.23633 7.91919 4.9079 7.91919 5.73633C7.91919 6.56476 7.24762 7.23633 6.41919 7.23633C5.59076 7.23633 4.91919 6.56476 4.91919 5.73633Z" fill="#666666"/>
</svg>
