<svg width="18" height="20" viewBox="0 0 18 20" fill="none" xmlns="http://www.w3.org/2000/svg">
<path d="M15.5 4.75L15.4972 2.62704C16.3726 2.93512 17 3.76929 17 4.75V12.2491C16.6152 12.0886 16.193 12 15.75 12H15.5V4.75ZM1 2.25V5.24908C1.3848 5.08861 1.80705 5 2.25 5H5.0959C5.99962 5 6.86253 5.37629 7.47747 6.03853L13.0131 12H14.5V2.25C14.5 1.00736 13.4926 0 12.25 0H3.25C2.00736 0 1 1.00736 1 2.25ZM2.25 6C1.00736 6 0 7.00736 0 8.25V16.75C0 18.5449 1.45507 20 3.25 20H14.75C16.5449 20 18 18.5449 18 16.75V15.25C18 14.0074 16.9926 13 15.75 13H12.9041C12.6956 13 12.4964 12.9132 12.3545 12.7603L6.74468 6.71899C6.31895 6.26051 5.72155 6 5.0959 6H2.25Z" fill="#666666"/>
</svg>
