<svg width="13" height="14" viewBox="0 0 13 14" fill="none" xmlns="http://www.w3.org/2000/svg">
<path d="M3.46159 0.307692C3.38396 0.121369 3.20191 0 3.00007 0C2.79822 0 2.61617 0.121369 2.53854 0.307692L0.0385911 6.30769C-0.0676152 6.56259 0.052921 6.85533 0.307816 6.96154C0.562711 7.06775 0.855442 6.94721 0.961648 6.69231L1.66684 4.99982H4.33329L5.03848 6.69231C5.14469 6.94721 5.43742 7.06775 5.69231 6.96154C5.94721 6.85533 6.06775 6.56259 5.96154 6.30769L3.46159 0.307692ZM2.08349 3.99982L3.00007 1.8L3.91664 3.99982H2.08349ZM0.500479 8.49982C0.500479 8.22367 0.724332 7.99982 1.00047 7.99982H4.50059C4.68702 7.99982 4.85797 8.10355 4.94407 8.26892C5.03017 8.43429 5.0171 8.63382 4.91019 8.78656L1.96081 12.9998H4.50039C4.77653 12.9998 5.00038 13.2237 5.00038 13.4998C5.00038 13.776 4.77653 13.9998 4.50039 13.9998H1.00047C0.814032 13.9998 0.643081 13.8961 0.556985 13.7307C0.470889 13.5653 0.48395 13.3658 0.590868 13.2131L3.54025 8.99982H1.00047C0.724332 8.99982 0.500479 8.77596 0.500479 8.49982ZM10.5 0C10.7761 0 11 0.223858 11 0.5V12.2929L12.1464 11.1464C12.3417 10.9512 12.6583 10.9512 12.8536 11.1464C13.0488 11.3417 13.0488 11.6583 12.8536 11.8536L10.8536 13.8536C10.6583 14.0488 10.3417 14.0488 10.1464 13.8536L8.14645 11.8536C7.95118 11.6583 7.95118 11.3417 8.14645 11.1464C8.34171 10.9512 8.65829 10.9512 8.85355 11.1464L10 12.2929V0.5C10 0.223858 10.2239 0 10.5 0Z" fill="#242424"/>
</svg>
