<svg width="8" height="12" viewBox="0 0 8 12" fill="none" xmlns="http://www.w3.org/2000/svg">
<path d="M0.418245 4.94093C0.679031 5.20172 1.10185 5.20172 1.36263 4.94093L3.78417 2.5194L6.2057 4.94093C6.46649 5.20172 6.8893 5.20172 7.15009 4.94093C7.41088 4.68015 7.41088 4.25733 7.15009 3.99654L4.25636 1.10282C3.99558 0.84203 3.57276 0.84203 3.31197 1.10282L0.418245 3.99654C0.15746 4.25733 0.15746 4.68015 0.418245 4.94093ZM0.418245 7.55805C0.679031 7.29727 1.10185 7.29727 1.36263 7.55805L3.78417 9.97959L6.2057 7.55805C6.46649 7.29727 6.8893 7.29727 7.15009 7.55805C7.41088 7.81884 7.41088 8.24166 7.15009 8.50244L4.25636 11.3962C3.99558 11.657 3.57276 11.657 3.31197 11.3962L0.418245 8.50244C0.15746 8.24166 0.15746 7.81884 0.418245 7.55805Z" fill="#1A1A1A"/>
</svg>
