<svg width="21" height="14" viewBox="0 0 21 14" fill="none" xmlns="http://www.w3.org/2000/svg">
<path d="M12.1139 3.18146C12.3542 3.43642 12.3423 3.83792 12.0873 4.07822L5.37986 10.4C5.09542 10.6681 4.64892 10.6599 4.37459 10.3814L2.10743 8.08044C1.86152 7.83086 1.8645 7.4292 2.11407 7.1833C2.36364 6.9374 2.7653 6.94037 3.01121 7.18994L4.90096 9.10789L11.2171 3.15491C11.4721 2.91461 11.8736 2.92649 12.1139 3.18146Z" fill="#F32034"/>
<path d="M19.1139 3.18146C19.3542 3.43642 19.3423 3.83792 19.0873 4.07822L12.3799 10.4C12.0954 10.6681 11.6489 10.6599 11.3746 10.3814L9.10743 8.08044C8.86152 7.83086 8.8645 7.4292 9.11407 7.1833C9.36364 6.9374 9.7653 6.94037 10.0112 7.18994L11.901 9.10789L18.2171 3.15491C18.4721 2.91461 18.8736 2.92649 19.1139 3.18146Z" fill="#F32034"/>
</svg>
