<svg width="16" height="17" viewBox="0 0 16 17" fill="none" xmlns="http://www.w3.org/2000/svg">
<rect y="0.200195" width="16" height="1.31687" fill="#EB3339"/>
<rect x="0.300781" y="1.5166" width="15.3985" height="11.4568" fill="#73676B"/>
<rect x="0.842102" y="1.5166" width="14.2556" height="10.93" fill="#EEE7E0"/>
<path d="M0.842102 12.4468V1.64844L10.9173 12.4468H0.842102Z" fill="#FDF5EC"/>
<rect x="2.64661" y="5.00684" width="3.24812" height="0.72428" fill="#635557"/>
<rect x="2.64661" y="6.52148" width="3.24812" height="0.72428" fill="#635557"/>
<rect x="2.64661" y="8.03516" width="3.24812" height="0.72428" fill="#635557"/>
<rect x="7.69922" y="5.79688" width="1.74436" height="4.47737" fill="#EB3339"/>
<rect x="10.0451" y="3.16309" width="1.74436" height="7.11111" fill="#F0A056"/>
<path d="M10.0451 7.24512H11.7895V10.2739H10.0451V7.24512Z" fill="#DA762C"/>
<rect x="12.391" y="6.52148" width="1.74436" height="3.75309" fill="#CC7630"/>
<rect x="12.391" y="8.75977" width="1.74436" height="1.5144" fill="#B46C2F"/>
<rect x="7.33832" y="12.9736" width="1.32331" height="3.16049" fill="#BFB7AF"/>
<path d="M10.2256 12.9736H8.87219L10.2857 16.2H11.6692L10.2256 12.9736Z" fill="#EB3339"/>
<path d="M5.7143 12.9736H7.06769L5.65415 16.2H4.2707L5.7143 12.9736Z" fill="#A9A29C"/>
</svg>
