<svg width="16" height="16" viewBox="0 0 16 16" fill="none" xmlns="http://www.w3.org/2000/svg">
<path d="M0.408955 1.0694L0.48821 0.974538C0.725972 0.736776 1.09505 0.710357 1.36199 0.895283L1.45685 0.974538L7.82184 7.33968L14.1868 0.974538C14.4543 0.707055 14.888 0.707055 15.1555 0.974538C15.423 1.24202 15.423 1.67569 15.1555 1.94318L8.79034 8.30817L15.1555 14.6732C15.3932 14.9109 15.4197 15.28 15.2347 15.5469L15.1555 15.6418C14.9177 15.8796 14.5486 15.906 14.2817 15.7211L14.1868 15.6418L7.82184 9.27667L1.45685 15.6418C1.18937 15.9093 0.755692 15.9093 0.48821 15.6418C0.220727 15.3743 0.220727 14.9406 0.48821 14.6732L6.85335 8.30817L0.48821 1.94318C0.250447 1.70541 0.224029 1.33634 0.408955 1.0694L0.48821 0.974538L0.408955 1.0694Z" fill="#1A1A1A"/>
</svg>
