<svg width="14" height="14" viewBox="0 0 14 14" fill="none" xmlns="http://www.w3.org/2000/svg">
<path d="M8.86107 12.075C9.14136 12.075 9.36858 11.8478 9.36858 11.5675C9.36858 11.2872 9.14136 11.06 8.86107 11.06H4.63181C3.88437 11.06 3.27845 10.4541 3.27845 9.70664V4.29319C3.27845 3.54575 3.88437 2.93983 4.63181 2.93983H8.86107C9.14136 2.93983 9.36858 2.71261 9.36858 2.43232C9.36858 2.15203 9.14136 1.9248 8.86107 1.9248H4.63181C3.32379 1.9248 2.26343 2.98517 2.26343 4.29319V9.70664C2.26343 11.0147 3.32379 12.075 4.63181 12.075H8.86107ZM9.53186 4.42778C9.73782 4.23767 10.0589 4.25051 10.249 4.45647L12.2791 6.65568C12.4585 6.85009 12.4585 7.14974 12.2791 7.34415L10.249 9.54337C10.0589 9.74932 9.73782 9.76217 9.53186 9.57205C9.3259 9.38194 9.31306 9.06085 9.50317 8.8549L10.747 7.50743H5.47766C5.19737 7.50743 4.97015 7.28021 4.97015 6.99992C4.97015 6.71963 5.19737 6.49241 5.47766 6.49241H10.747L9.50317 5.14494C9.31306 4.93898 9.3259 4.6179 9.53186 4.42778Z" fill="#F32034"/>
</svg>
