<svg width="18" height="20" viewBox="0 0 18 20" fill="none" xmlns="http://www.w3.org/2000/svg">
<path d="M8.99999 -0.00390625C13.0499 -0.00390625 16.3567 3.19084 16.4958 7.24515L16.5 7.49609V11.5931L17.88 14.7491C17.949 14.907 17.9847 15.0775 17.9847 15.2499C17.9847 15.9402 17.425 16.4999 16.7347 16.4999L12 16.5014C12 18.1582 10.6568 19.5014 8.99999 19.5014C7.40231 19.5014 6.09633 18.2524 6.00508 16.6776L5.99954 16.4991L1.27485 16.4999C1.10351 16.4999 0.934005 16.4646 0.776852 16.3964C0.14365 16.1213 -0.146699 15.3851 0.12834 14.7519L1.49999 11.594V7.49599C1.50059 3.3412 4.85208 -0.00390625 8.99999 -0.00390625ZM10.4995 16.4991L7.49999 16.5014C7.49999 17.3298 8.17156 18.0014 8.99999 18.0014C9.77969 18.0014 10.4204 17.4065 10.4931 16.6458L10.4995 16.4991ZM8.99999 1.49609C5.67983 1.49609 3.00047 4.17035 2.99999 7.49609V11.9057L1.65601 14.9999H16.3525L15 11.9067L15.0001 7.50895L14.9964 7.28375C14.8853 4.05027 12.2416 1.49609 8.99999 1.49609Z" fill="#1A1A1A"/>
</svg>
