<svg width="16" height="16" viewBox="0 0 16 16" fill="none" xmlns="http://www.w3.org/2000/svg">
<rect y="6.5" width="11.0748" height="7.5" fill="#EB3339"/>
<path d="M11.0748 14.25L0 6.5H11.0748V14.25Z" fill="#EF8132"/>
<path d="M8.4893 0.734644L5.18739 4.01427C4.77869 4.42021 4.54907 4.97081 4.54907 5.54495V5.60126C4.54907 4.78277 5.21712 4.11924 6.04116 4.11924H8.59498V1.58261C8.59498 0.764121 9.26303 0.100586 10.0871 0.100586H10.0304C9.45238 0.10063 8.89804 0.328701 8.4893 0.734644Z" fill="#EB3339"/>
<path d="M4.54907 5.45705V5.51337C4.54907 4.69488 5.21712 4.03135 6.04116 4.03135H8.59498V1.49472C8.59498 0.676231 9.26303 0.0126953 10.0871 0.0126953H16.3128V15.9858H4.54907V5.45705Z" fill="#FDF5EC"/>
<path d="M6.42795 15.9703L5.94664 5.55924L6.77314 4.08129H6.03537C5.21447 4.08129 4.53058 4.73394 4.53058 5.55924V15.9703H6.42795ZM10.0658 0C9.24494 0 8.59008 0.681841 8.59008 1.50715V1.84301L10.0673 0H10.0658Z" fill="#EEE7E0"/>
<path d="M9.56454 6.5H7.04755V7.5H9.56454V6.5Z" fill="#EB3339"/>
<path d="M9.56454 8H7.04755V9H9.56454V8Z" fill="#BFB7AF"/>
<path d="M9.56454 9.5H7.04755V10.5H9.56454V9.5Z" fill="#EB3339"/>
<path d="M9.56454 11H7.04755V11.5H9.56454V11Z" fill="#BFB7AF"/>
<path d="M14.5985 13H7.04755V13.5H14.5985V13Z" fill="#BFB7AF"/>
<path d="M14.5985 14H7.04755V14.5H14.5985V14Z" fill="#BFB7AF"/>
<rect x="10.5714" y="2.5" width="4.02719" height="5" fill="#EB3339"/>
<ellipse cx="12.585" cy="4.5" rx="1.0068" ry="1" fill="#EF8132"/>
<path d="M14.5985 7.5C14.5985 6.96957 14.3864 6.46086 14.0088 6.08579C13.6311 5.71071 13.119 5.5 12.5849 5.5C12.0509 5.5 11.5387 5.71071 11.1611 6.08579C10.7835 6.46086 10.5714 6.96957 10.5714 7.5L12.5849 7.5H14.5985Z" fill="#EF8132"/>
<rect x="11.0748" y="10.5" width="3.52379" height="1" fill="#EB3339"/>
<rect x="11.0748" y="8.5" width="1.0068" height="2" fill="#EF8132"/>
<rect x="12.585" y="8" width="1.0068" height="2.5" fill="#BFB7AF"/>
<rect x="14.0952" y="8.5" width="0.503399" height="2" fill="#BFB7AF"/>
</svg>
