<svg width="22" height="22" viewBox="0 0 22 22" fill="none" xmlns="http://www.w3.org/2000/svg">
<path d="M9.11239 3.13318C12.5178 3.13318 15.2783 5.89377 15.2783 9.29913C15.2783 10.772 14.7619 12.1243 13.9002 13.1848L18.0682 17.3529C18.3173 17.602 18.3173 18.0058 18.0682 18.2549C17.8417 18.4814 17.4874 18.502 17.2377 18.3167L17.1661 18.2549L12.9981 14.0869C11.9376 14.9486 10.5853 15.4651 9.11239 15.4651C5.70703 15.4651 2.94644 12.7045 2.94644 9.29913C2.94644 5.89377 5.70703 3.13318 9.11239 3.13318ZM9.11239 4.40889C6.41159 4.40889 4.22216 6.59833 4.22216 9.29913C4.22216 11.9999 6.41159 14.1894 9.11239 14.1894C11.8132 14.1894 14.0026 11.9999 14.0026 9.29913C14.0026 6.59833 11.8132 4.40889 9.11239 4.40889Z" fill="#242424"/>
</svg>
