<svg width="19" height="19" viewBox="0 0 19 19" fill="none" xmlns="http://www.w3.org/2000/svg">
<path d="M6.06995 9.50038C6.06995 9.26117 6.26387 9.06725 6.50308 9.06725H9.10185V6.46847C9.10185 6.22926 9.29577 6.03534 9.53498 6.03534C9.77419 6.03534 9.96811 6.22926 9.96811 6.46847V9.06725H12.5669C12.8061 9.06725 13 9.26117 13 9.50038C13 9.73959 12.8061 9.93351 12.5669 9.93351H9.96811V12.5323C9.96811 12.7715 9.77419 12.9654 9.53498 12.9654C9.29577 12.9654 9.10186 12.7715 9.10186 12.5323V9.93351H6.50308C6.26387 9.93351 6.06995 9.73959 6.06995 9.50038ZM9.53498 16.4304C13.3624 16.4304 16.465 13.3277 16.465 9.50038C16.465 5.67301 13.3624 2.57031 9.53498 2.57031C5.70762 2.57031 2.60492 5.67301 2.60492 9.50038C2.60492 13.3277 5.70762 16.4304 9.53498 16.4304ZM9.53498 15.5642C6.18604 15.5642 3.47118 12.8493 3.47118 9.50038C3.47118 6.15143 6.18604 3.43657 9.53498 3.43657C12.8839 3.43657 15.5988 6.15143 15.5988 9.50038C15.5988 12.8493 12.8839 15.5642 9.53498 15.5642Z" fill="#B3B3B3"/>
</svg>
