<svg width="20" height="21" viewBox="0 0 20 21" fill="none" xmlns="http://www.w3.org/2000/svg">
<path d="M6.75 6.58984C7.16421 6.58984 7.5 6.25406 7.5 5.83984C7.5 5.42563 7.16421 5.08984 6.75 5.08984C6.33579 5.08984 6 5.42563 6 5.83984C6 6.25406 6.33579 6.58984 6.75 6.58984ZM7.5 8.83984C7.5 9.25406 7.16421 9.58984 6.75 9.58984C6.33579 9.58984 6 9.25406 6 8.83984C6 8.42563 6.33579 8.08984 6.75 8.08984C7.16421 8.08984 7.5 8.42563 7.5 8.83984ZM6.75 12.5898C7.16421 12.5898 7.5 12.2541 7.5 11.8398C7.5 11.4256 7.16421 11.0898 6.75 11.0898C6.33579 11.0898 6 11.4256 6 11.8398C6 12.2541 6.33579 12.5898 6.75 12.5898ZM10.5 5.83984C10.5 6.25406 10.1642 6.58984 9.75 6.58984C9.33579 6.58984 9 6.25406 9 5.83984C9 5.42563 9.33579 5.08984 9.75 5.08984C10.1642 5.08984 10.5 5.42563 10.5 5.83984ZM9.75 9.58984C10.1642 9.58984 10.5 9.25406 10.5 8.83984C10.5 8.42563 10.1642 8.08984 9.75 8.08984C9.33579 8.08984 9 8.42563 9 8.83984C9 9.25406 9.33579 9.58984 9.75 9.58984ZM10.5 11.8398C10.5 12.2541 10.1642 12.5898 9.75 12.5898C9.33579 12.5898 9 12.2541 9 11.8398C9 11.4256 9.33579 11.0898 9.75 11.0898C10.1642 11.0898 10.5 11.4256 10.5 11.8398ZM12.75 12.5898C13.1642 12.5898 13.5 12.2541 13.5 11.8398C13.5 11.4256 13.1642 11.0898 12.75 11.0898C12.3358 11.0898 12 11.4256 12 11.8398C12 12.2541 12.3358 12.5898 12.75 12.5898ZM4.5 18.0898C4.22386 18.0898 4 17.866 4 17.5898V3.58984C4 2.76142 4.67157 2.08984 5.5 2.08984H11.5C12.3284 2.08984 13 2.76142 13 3.58984V8.08984H14.5C15.3284 8.08984 16 8.76142 16 9.58984V17.5898C16 17.866 15.7761 18.0898 15.5 18.0898H4.5ZM5 3.58984V17.0898H7V14.5898C7 14.3137 7.22386 14.0898 7.5 14.0898H12.5C12.7761 14.0898 13 14.3137 13 14.5898V17.0898H15V9.58984C15 9.3137 14.7761 9.08984 14.5 9.08984H12.5C12.2239 9.08984 12 8.86599 12 8.58984V3.58984C12 3.3137 11.7761 3.08984 11.5 3.08984H5.5C5.22386 3.08984 5 3.3137 5 3.58984ZM12 15.0898H10.5V17.0898H12V15.0898ZM9.5 15.0898H8V17.0898H9.5V15.0898Z" fill="#1A1A1A"/>
</svg>
