<svg width="15" height="15" viewBox="0 0 15 15" fill="none" xmlns="http://www.w3.org/2000/svg">
<path d="M10.3459 1.27836L2.02481 9.59948L1.92322 9.71028C1.76239 9.90177 1.64452 10.1263 1.57841 10.3687L0.620416 13.8813L0.60728 13.9501C0.574754 14.2451 0.852011 14.4951 1.15225 14.4132L4.6649 13.4552L4.80807 13.4094C5.04272 13.3229 5.25646 13.1865 5.43412 13.0088L13.7552 4.68767L13.868 4.56702C14.6951 3.62003 14.6575 2.18059 13.7552 1.27836C12.8138 0.336902 11.2874 0.336902 10.3459 1.27836ZM2.63734 10.212L9.60077 3.249L11.7846 5.43284L4.82158 12.3963L4.73697 12.4705L4.64384 12.533C4.5792 12.5705 4.50969 12.5996 4.43697 12.6194L1.65475 13.3779L2.41415 10.5966L2.45076 10.4902C2.49413 10.3865 2.5574 10.292 2.63734 10.212ZM13.1427 1.89089L13.2376 1.99476C13.744 2.60156 13.7124 3.50548 13.1427 4.07513L12.397 4.8204L10.2132 2.63656L10.9585 1.89089L11.0623 1.79595C11.6691 1.2896 12.5731 1.32124 13.1427 1.89089ZM8.96264 1.43654H1.03802C0.798805 1.43654 0.604887 1.63046 0.604887 1.86967C0.604887 2.10888 0.798805 2.3028 1.03802 2.3028H8.09638L8.96264 1.43654ZM6.36386 4.03531H1.03802C0.798805 4.03531 0.604887 4.22923 0.604887 4.46844C0.604887 4.70765 0.798805 4.90157 1.03802 4.90157H5.4976L6.36386 4.03531ZM2.89883 7.50035L3.76509 6.63409H1.03802C0.798805 6.63409 0.604887 6.82801 0.604887 7.06722C0.604887 7.30643 0.798805 7.50035 1.03802 7.50035H2.89883Z" fill="#1A1A1A"/>
</svg>
