<svg width="20" height="21" viewBox="0 0 20 21" fill="none" xmlns="http://www.w3.org/2000/svg">
<path d="M13 9.08984C13 10.7467 11.6569 12.0898 10 12.0898C8.34315 12.0898 7 10.7467 7 9.08984C7 7.43299 8.34315 6.08984 10 6.08984C11.6569 6.08984 13 7.43299 13 9.08984ZM12 9.08984C12 7.98527 11.1046 7.08984 10 7.08984C8.89543 7.08984 8 7.98527 8 9.08984C8 10.1944 8.89543 11.0898 10 11.0898C11.1046 11.0898 12 10.1944 12 9.08984ZM14.9497 14.0448C17.6834 11.3099 17.6834 6.87586 14.9497 4.14099C12.2161 1.40613 7.78392 1.40613 5.05025 4.14099C2.31658 6.87586 2.31658 11.3099 5.05025 14.0448L6.57128 15.5437L8.61408 17.5288L8.74691 17.6465C9.52168 18.2745 10.6562 18.2353 11.3861 17.5289L13.8223 15.159L14.9497 14.0448ZM5.75499 4.84604C8.09944 2.50056 11.9006 2.50056 14.245 4.84604C16.5294 7.13138 16.5879 10.8002 14.4207 13.1565L14.245 13.3398L12.9237 14.6437L10.6931 16.8123L10.6002 16.892C10.2459 17.1597 9.7543 17.1597 9.40012 16.8919L9.30713 16.8122L6.3263 13.9068L5.75499 13.3398L5.57927 13.1565C3.41208 10.8002 3.47065 7.13138 5.75499 4.84604Z" fill="#1A1A1A"/>
</svg>
