<svg width="18" height="21" viewBox="0 0 18 21" fill="none" xmlns="http://www.w3.org/2000/svg">
<path d="M15.157 15.4717L13.97 16.6456C13.0952 17.5043 11.96 18.6082 10.5642 19.9578C9.69194 20.8011 8.30811 20.801 7.436 19.9575L3.9449 16.5617C3.50614 16.1308 3.13887 15.7675 2.84303 15.4717C-0.557378 12.0713 -0.557378 6.55814 2.84303 3.15773C6.24344 -0.242681 11.7566 -0.242681 15.157 3.15773C18.5574 6.55814 18.5574 12.0713 15.157 15.4717ZM11.5002 9.58942C11.5002 8.2086 10.3808 7.08922 9.00002 7.08922C7.6192 7.08922 6.49982 8.2086 6.49982 9.58942C6.49982 10.9702 7.6192 12.0896 9.00002 12.0896C10.3808 12.0896 11.5002 10.9702 11.5002 9.58942Z" fill="#188B54"/>
</svg>
