<svg width="20" height="21" viewBox="0 0 20 21" fill="none" xmlns="http://www.w3.org/2000/svg">
<path d="M10 2.08984C7.79086 2.08984 6 3.8807 6 6.08984C6 8.29898 7.79086 10.0898 10 10.0898C12.2091 10.0898 14 8.29898 14 6.08984C14 3.8807 12.2091 2.08984 10 2.08984ZM7 6.08984C7 4.43299 8.34315 3.08984 10 3.08984C11.6569 3.08984 13 4.43299 13 6.08984C13 7.7467 11.6569 9.08984 10 9.08984C8.34315 9.08984 7 7.7467 7 6.08984ZM5.00873 11.0898C3.90315 11.0898 3 11.9767 3 13.0898C3 14.781 3.83281 16.0561 5.13499 16.8864C6.41697 17.7038 8.14526 18.0898 10 18.0898C11.8547 18.0898 13.583 17.7038 14.865 16.8864C16.1672 16.0561 17 14.781 17 13.0898C17 11.9854 16.1045 11.0898 15 11.0898L5.00873 11.0898ZM4 13.0898C4 12.5365 4.44786 12.0898 5.00873 12.0898L15 12.0898C15.5522 12.0898 16 12.5377 16 13.0898C16 14.3986 15.3777 15.3735 14.3274 16.0433C13.2568 16.7259 11.7351 17.0898 10 17.0898C8.26489 17.0898 6.74318 16.7259 5.67262 16.0433C4.62226 15.3735 4 14.3986 4 13.0898Z" fill="#1A1A1A"/>
</svg>
