<svg width="20" height="21" viewBox="0 0 20 21" fill="none" xmlns="http://www.w3.org/2000/svg">
<path d="M9 14.0898C8.72386 14.0898 8.5 14.3137 8.5 14.5898C8.5 14.866 8.72386 15.0898 9 15.0898H11C11.2761 15.0898 11.5 14.866 11.5 14.5898C11.5 14.3137 11.2761 14.0898 11 14.0898H9ZM7 2.08984C5.89543 2.08984 5 2.98527 5 4.08984V16.0898C5 17.1944 5.89543 18.0898 7 18.0898H13C14.1046 18.0898 15 17.1944 15 16.0898V4.08984C15 2.98527 14.1046 2.08984 13 2.08984H7ZM6 4.08984C6 3.53756 6.44772 3.08984 7 3.08984H13C13.5523 3.08984 14 3.53756 14 4.08984V16.0898C14 16.6421 13.5523 17.0898 13 17.0898H7C6.44772 17.0898 6 16.6421 6 16.0898V4.08984Z" fill="#1A1A1A"/>
</svg>
