<svg width="24" height="25" viewBox="0 0 24 25" fill="none" xmlns="http://www.w3.org/2000/svg">
<path d="M12 0.926758C5.37258 0.926758 0 6.29934 0 12.9268C0 19.5542 5.37258 24.9268 12 24.9268C18.6274 24.9268 24 19.5542 24 12.9268C24 6.29934 18.6274 0.926758 12 0.926758ZM3 12.9268C3 7.95619 7.02944 3.92676 12 3.92676C16.9706 3.92676 21 7.95619 21 12.9268C21 17.8973 16.9706 21.9268 12 21.9268C7.02944 21.9268 3 17.8973 3 12.9268ZM17.0607 9.3661C17.6464 9.95188 17.6464 10.9016 17.0607 11.4874L11.5607 16.9874C10.9749 17.5732 10.0251 17.5732 9.43934 16.9874L7.43934 14.9874C6.85355 14.4016 6.85355 13.4519 7.43934 12.8661C8.02513 12.2803 8.97487 12.2803 9.56066 12.8661L10.5 13.8054L14.9393 9.3661C15.5251 8.78031 16.4749 8.78031 17.0607 9.3661Z" fill="#188B54"/>
</svg>
