<svg width="15" height="13" viewBox="0 0 15 13" fill="none" xmlns="http://www.w3.org/2000/svg">
<path d="M3.20415 1.73489C3.20415 1.01728 3.78589 0.435547 4.50349 0.435547H10.5671C11.2847 0.435547 11.8664 1.01728 11.8664 1.73489V2.168H12.2995C13.4956 2.168 14.4651 3.13756 14.4651 4.33357V8.66471C14.4651 9.38232 13.8834 9.96406 13.1658 9.96406H11.8664V11.2634C11.8664 11.981 11.2847 12.5627 10.5671 12.5627H4.50349C3.78589 12.5627 3.20415 11.981 3.20415 11.2634V9.96406H1.90481C1.1872 9.96406 0.605469 9.38232 0.605469 8.66471V4.33357C0.605469 3.13756 1.57503 2.168 2.77104 2.168H3.20415V1.73489ZM4.07038 2.168H11.0002V1.73489C11.0002 1.49569 10.8063 1.30177 10.5671 1.30177H4.50349C4.26429 1.30177 4.07038 1.49569 4.07038 1.73489V2.168ZM3.20415 9.09783V7.79849C3.20415 7.08088 3.78589 6.49914 4.50349 6.49914H10.5671C11.2847 6.49914 11.8664 7.08088 11.8664 7.79849V9.09783H13.1658C13.405 9.09783 13.5989 8.90392 13.5989 8.66471V4.33357C13.5989 3.61597 13.0172 3.03423 12.2995 3.03423H2.77104C2.05343 3.03423 1.4717 3.61597 1.4717 4.33357V8.66471C1.4717 8.90392 1.66561 9.09783 1.90481 9.09783H3.20415ZM4.50349 7.36537C4.26429 7.36537 4.07038 7.55928 4.07038 7.79849V11.2634C4.07038 11.5026 4.26429 11.6965 4.50349 11.6965H10.5671C10.8063 11.6965 11.0002 11.5026 11.0002 11.2634V7.79849C11.0002 7.55928 10.8063 7.36537 10.5671 7.36537H4.50349Z" fill="#1A1A1A"/>
</svg>
