<svg width="11" height="15" viewBox="0 0 11 15" fill="none" xmlns="http://www.w3.org/2000/svg">
<path d="M3.8028 10.531C3.8028 10.2918 3.60889 10.0978 3.36969 10.0978C3.13049 10.0978 2.93657 10.2918 2.93657 10.531V12.2634C2.93657 12.5026 3.13049 12.6965 3.36969 12.6965C3.60889 12.6965 3.8028 12.5026 3.8028 12.2634V10.531ZM5.53526 6.63293C5.77446 6.63293 5.96837 6.82684 5.96837 7.06605L5.96837 12.2634C5.96837 12.5026 5.77446 12.6965 5.53526 12.6965C5.29606 12.6965 5.10214 12.5026 5.10214 12.2634L5.10214 7.06605C5.10214 6.82684 5.29606 6.63293 5.53526 6.63293ZM8.13394 8.7985C8.13394 8.5593 7.94003 8.36539 7.70083 8.36539C7.46163 8.36539 7.26771 8.5593 7.26771 8.7985V12.2634C7.26771 12.5026 7.46163 12.6965 7.70083 12.6965C7.94003 12.6965 8.13394 12.5026 8.13394 12.2634V8.7985ZM0.337891 2.30179C0.337891 1.34498 1.11354 0.569336 2.07035 0.569336H6.04268C6.38729 0.569336 6.71778 0.70623 6.96146 0.949904L10.3521 4.34051C10.5957 4.58418 10.7326 4.91467 10.7326 5.25928V12.6965C10.7326 13.6533 9.95698 14.429 9.00017 14.429H2.07035C1.11354 14.429 0.337891 13.6533 0.337891 12.6965V2.30179ZM2.07035 1.43556C1.59194 1.43556 1.20412 1.82339 1.20412 2.30179V12.6965C1.20412 13.1749 1.59194 13.5628 2.07035 13.5628H9.00017C9.47858 13.5628 9.8664 13.1749 9.8664 12.6965V5.7667H6.8346C6.11699 5.7667 5.53526 5.18497 5.53526 4.46736V1.43556H2.07035ZM6.8346 4.90048H9.687L6.40149 1.61497V4.46736C6.40149 4.70656 6.5954 4.90048 6.8346 4.90048Z" fill="#1A1A1A"/>
</svg>
