<svg width="12" height="17" viewBox="0 0 12 17" fill="none" xmlns="http://www.w3.org/2000/svg">
<path d="M0 2C0 1.17157 0.671573 0.5 1.5 0.5H7.5C8.32843 0.5 9 1.17157 9 2V6.5H10.5C11.3284 6.5 12 7.17157 12 8V16C12 16.2761 11.7761 16.5 11.5 16.5H9V13C9 12.7239 8.77614 12.5 8.5 12.5H3.5C3.22386 12.5 3 12.7239 3 13V16.5H0.5C0.223858 16.5 0 16.2761 0 16V2ZM2.75 5C3.16421 5 3.5 4.66421 3.5 4.25C3.5 3.83579 3.16421 3.5 2.75 3.5C2.33579 3.5 2 3.83579 2 4.25C2 4.66421 2.33579 5 2.75 5ZM3.5 7.25C3.5 6.83579 3.16421 6.5 2.75 6.5C2.33579 6.5 2 6.83579 2 7.25C2 7.66421 2.33579 8 2.75 8C3.16421 8 3.5 7.66421 3.5 7.25ZM2.75 11C3.16421 11 3.5 10.6642 3.5 10.25C3.5 9.83579 3.16421 9.5 2.75 9.5C2.33579 9.5 2 9.83579 2 10.25C2 10.6642 2.33579 11 2.75 11ZM6.5 4.25C6.5 3.83579 6.16421 3.5 5.75 3.5C5.33579 3.5 5 3.83579 5 4.25C5 4.66421 5.33579 5 5.75 5C6.16421 5 6.5 4.66421 6.5 4.25ZM5.75 8C6.16421 8 6.5 7.66421 6.5 7.25C6.5 6.83579 6.16421 6.5 5.75 6.5C5.33579 6.5 5 6.83579 5 7.25C5 7.66421 5.33579 8 5.75 8ZM6.5 10.25C6.5 9.83579 6.16421 9.5 5.75 9.5C5.33579 9.5 5 9.83579 5 10.25C5 10.6642 5.33579 11 5.75 11C6.16421 11 6.5 10.6642 6.5 10.25ZM8.75 11C9.16421 11 9.5 10.6642 9.5 10.25C9.5 9.83579 9.16421 9.5 8.75 9.5C8.33579 9.5 8 9.83579 8 10.25C8 10.6642 8.33579 11 8.75 11ZM8 13.5V16.5H6.5V13.5H8ZM5.5 13.5H4V16.5H5.5V13.5Z" fill="#666666"/>
</svg>
