<svg width="14" height="14" viewBox="0 0 14 14" fill="none" xmlns="http://www.w3.org/2000/svg">
<path d="M10 8H8V10H10V12H8V14H10V12H12V14H14V12H12V10H14V8H12V10H10V8ZM2 2H4V4H2V2ZM2 0C0.895431 0 0 0.895431 0 2V4C0 5.10457 0.895431 6 2 6H4C5.10457 6 6 5.10457 6 4V2C6 0.895431 5.10457 0 4 0H2ZM1.25 1.75C1.25 1.47386 1.47386 1.25 1.75 1.25H4.25C4.52614 1.25 4.75 1.47386 4.75 1.75V4.25C4.75 4.52614 4.52614 4.75 4.25 4.75H1.75C1.47386 4.75 1.25 4.52614 1.25 4.25V1.75ZM2 10H4V12H2V10ZM2 8C0.895431 8 0 8.89543 0 10V12C0 13.1046 0.895431 14 2 14H4C5.10457 14 6 13.1046 6 12V10C6 8.89543 5.10457 8 4 8H2ZM1.25 9.75C1.25 9.47386 1.47386 9.25 1.75 9.25H4.25C4.52614 9.25 4.75 9.47386 4.75 9.75V12.25C4.75 12.5261 4.52614 12.75 4.25 12.75H1.75C1.47386 12.75 1.25 12.5261 1.25 12.25V9.75ZM10 2H12V4H10V2ZM10 0C8.89543 0 8 0.895431 8 2V4C8 5.10457 8.89543 6 10 6H12C13.1046 6 14 5.10457 14 4V2C14 0.895431 13.1046 0 12 0H10ZM9.25 1.75C9.25 1.47386 9.47386 1.25 9.75 1.25H12.25C12.5261 1.25 12.75 1.47386 12.75 1.75V4.25C12.75 4.52614 12.5261 4.75 12.25 4.75H9.75C9.47386 4.75 9.25 4.52614 9.25 4.25V1.75Z" fill="#666666"/>
</svg>
