<svg width="16" height="16" viewBox="0 0 16 16" fill="none" xmlns="http://www.w3.org/2000/svg">
<path d="M0.160328 0.413029L0.239681 0.31805C0.47774 0.0799909 0.847276 0.0535396 1.11455 0.238697L1.20953 0.31805L7.58248 6.69115L13.9554 0.31805C14.2233 0.0502334 14.6575 0.0502334 14.9253 0.31805C15.1931 0.585867 15.1931 1.02008 14.9253 1.2879L8.55219 7.66085L14.9253 14.0338C15.1633 14.2719 15.1898 14.6414 15.0046 14.9087L14.9253 15.0037C14.6872 15.2417 14.3177 15.2682 14.0504 15.083L13.9554 15.0037L7.58248 8.63056L1.20953 15.0037C0.941714 15.2715 0.507498 15.2715 0.239681 15.0037C-0.0281357 14.7358 -0.0281357 14.3016 0.239681 14.0338L6.61278 7.66085L0.239681 1.2879C0.00162171 1.04984 -0.0248295 0.680305 0.160328 0.413029L0.239681 0.31805L0.160328 0.413029Z" fill="#1A1A1A"/>
</svg>
