<svg width="16" height="9" viewBox="0 0 16 9" fill="none" xmlns="http://www.w3.org/2000/svg">
<path d="M8.01236 2.77887C9.65045 2.77887 10.9784 4.10681 10.9784 5.7449C10.9784 7.38299 9.65045 8.71092 8.01236 8.71092C6.37427 8.71092 5.04634 7.38299 5.04634 5.7449C5.04634 4.10681 6.37427 2.77887 8.01236 2.77887ZM8.01236 3.89113C6.98855 3.89113 6.1586 4.72109 6.1586 5.7449C6.1586 6.7687 6.98855 7.59866 8.01236 7.59866C9.03617 7.59866 9.86613 6.7687 9.86613 5.7449C9.86613 4.72109 9.03617 3.89113 8.01236 3.89113ZM8.01236 0.180176C11.4333 0.180176 14.3864 2.51592 15.2058 5.78921C15.2804 6.08716 15.0993 6.38916 14.8014 6.46374C14.5034 6.53833 14.2014 6.35725 14.1268 6.0593C13.4306 3.27816 10.9201 1.29243 8.01236 1.29243C5.10338 1.29243 2.59203 3.27987 1.89706 6.06265C1.82264 6.36064 1.52074 6.54188 1.22275 6.46746C0.924762 6.39304 0.743522 6.09115 0.817942 5.79316C1.63589 2.51793 4.58993 0.180176 8.01236 0.180176Z" fill="#666666"/>
</svg>
