<svg width="9" height="12" viewBox="0 0 9 12" fill="none" xmlns="http://www.w3.org/2000/svg">
<path d="M4.50464 0.0679932C5.7332 0.0679932 6.72916 1.06394 6.72916 2.29251V3.03402H7.47066C8.28971 3.03402 8.95367 3.69798 8.95367 4.51703V9.70757C8.95367 10.5266 8.28971 11.1906 7.47066 11.1906H1.53861C0.71957 11.1906 0.055603 10.5266 0.055603 9.70757V4.51703C0.055603 3.69798 0.71957 3.03402 1.53861 3.03402H2.28012V2.29251C2.28012 1.06394 3.27607 0.0679932 4.50464 0.0679932ZM4.50464 6.37079C4.09512 6.37079 3.76313 6.70278 3.76313 7.1123C3.76313 7.52182 4.09512 7.8538 4.50464 7.8538C4.91416 7.8538 5.24614 7.52182 5.24614 7.1123C5.24614 6.70278 4.91416 6.37079 4.50464 6.37079ZM4.50464 1.551C4.09512 1.551 3.76313 1.88299 3.76313 2.29251V3.03402H5.24614V2.29251C5.24614 1.88299 4.91416 1.551 4.50464 1.551Z" fill="#666666"/>
</svg>
