<svg width="12" height="16" viewBox="0 0 12 16" fill="none" xmlns="http://www.w3.org/2000/svg">
<path d="M6 0.5C7.65685 0.5 9 1.84315 9 3.5V4.5H10C11.1046 4.5 12 5.39543 12 6.5V13.5C12 14.6046 11.1046 15.5 10 15.5H2C0.89543 15.5 0 14.6046 0 13.5V6.5C0 5.39543 0.89543 4.5 2 4.5H3V3.5C3 1.84315 4.34315 0.5 6 0.5ZM6 9C5.44772 9 5 9.44772 5 10C5 10.5523 5.44772 11 6 11C6.55228 11 7 10.5523 7 10C7 9.44772 6.55228 9 6 9ZM6 2.5C5.44772 2.5 5 2.94772 5 3.5V4.5H7V3.5C7 2.94772 6.55228 2.5 6 2.5Z" fill="#666666"/>
</svg>
