<svg width="16" height="17" viewBox="0 0 16 17" fill="none" xmlns="http://www.w3.org/2000/svg">
<path d="M10 10.5H12V12.5H10V10.5ZM3.00001 0.5H13C13.1484 0.5 13.2891 0.565912 13.3841 0.679908L15.8841 3.67991C16.0009 3.82003 16.0005 3.89121 16.0001 3.98233L16 4V5.5C16 6.3885 15.6137 7.18679 15 7.73611V16C15 16.2761 14.7761 16.5 14.5 16.5H8V10C8 9.72386 7.77614 9.5 7.5 9.5H3.5C3.22386 9.5 3 9.72386 3 10V16.5H1.5C1.22386 16.5 1 16.2761 1 16V7.73611C0.386251 7.18679 0 6.3885 0 5.5V4C1.93447e-05 3.8852 0.0395518 3.77152 0.115895 3.67991L2.6159 0.679908C2.71089 0.565912 2.85162 0.5 3.00001 0.5ZM1 4.5V5.5C1 6.60457 1.89543 7.5 3 7.5C4.10457 7.5 5 6.60457 5 5.5V4.5H1ZM6 4.5V5.5C6 6.60457 6.89543 7.5 8 7.5C9.10457 7.5 10 6.60457 10 5.5V4.5H6ZM11 4.5V5.5C11 6.60457 11.8954 7.5 13 7.5C14.1046 7.5 15 6.60457 15 5.5V4.5H11ZM3.23419 1.5L1.56753 3.5H5.13964L5.8063 1.5H3.23419ZM9.80628 3.5L9.13962 1.5H6.8604L6.19373 3.5H9.80628ZM10.8604 3.5H14.4325L12.7658 1.5H10.1937L10.8604 3.5ZM9 10V13C9 13.2761 9.22386 13.5 9.5 13.5H12.5C12.7761 13.5 13 13.2761 13 13V10C13 9.72386 12.7761 9.5 12.5 9.5H9.5C9.22386 9.5 9 9.72386 9 10ZM7 16.5V10.5H4V16.5H7Z" fill="#666666"/>
</svg>
