<svg width="15" height="16" viewBox="0 0 15 16" fill="none" xmlns="http://www.w3.org/2000/svg">
<path d="M7.22546 0C5.01632 0 3.22546 1.79086 3.22546 4C3.22546 6.20914 5.01632 8 7.22546 8C9.4346 8 11.2255 6.20914 11.2255 4C11.2255 1.79086 9.4346 0 7.22546 0ZM2.23419 9C1.12861 9 0.225464 9.88687 0.225464 11C0.225464 12.6912 1.05827 13.9663 2.36046 14.7966C3.64243 15.614 5.37072 16 7.22546 16C9.08021 16 10.8085 15.614 12.0905 14.7966C13.3927 13.9663 14.2255 12.6912 14.2255 11C14.2255 9.89557 13.33 9.00001 12.2255 9.00001L2.23419 9Z" fill="#666666"/>
</svg>
