<svg width="13" height="13" viewBox="0 0 13 13" fill="none" xmlns="http://www.w3.org/2000/svg">
<path d="M3.6255 2.52635L8.28359 4.52176L6.41857 5.32106L1.78755 3.33633C1.89168 3.22965 2.01921 3.14415 2.16428 3.08835L3.6255 2.52635ZM4.56825 2.16375L5.65983 1.74391C6.14822 1.55607 6.68892 1.55607 7.17731 1.74391L10.6729 3.08835C10.8179 3.14415 10.9455 3.22965 11.0496 3.33633L9.17799 4.13845L4.56825 2.16375ZM11.3457 3.97594L6.77084 5.93659V11.1853C6.90878 11.162 7.04496 11.1249 7.17731 11.074L10.6729 9.72958C11.081 9.57261 11.3503 9.18049 11.3503 8.74322V4.07471C11.3503 4.0415 11.3487 4.00855 11.3457 3.97594ZM6.0663 11.1853V5.93659L1.49145 3.97594C1.4884 4.00855 1.48685 4.0415 1.48685 4.07471V8.74322C1.48685 9.18049 1.75615 9.57261 2.16428 9.72958L5.65983 11.074C5.79218 11.1249 5.92836 11.162 6.0663 11.1853Z" fill="#666666"/>
</svg>
