<svg width="13" height="12" viewBox="0 0 13 12" fill="none" xmlns="http://www.w3.org/2000/svg">
<path d="M8.98812 2.99979L4.33003 1.00437L2.86881 1.56638C2.72374 1.62218 2.59621 1.70768 2.49208 1.81436L7.1231 3.79908L8.98812 2.99979ZM6.36437 0.221935L5.27279 0.641774L9.88252 2.61647L11.7541 1.81436C11.65 1.70768 11.5225 1.62218 11.3774 1.56638L7.88184 0.221935C7.39346 0.0340944 6.85275 0.0340947 6.36437 0.221935ZM7.47537 4.41462L12.0502 2.45397C12.0533 2.48658 12.0548 2.51953 12.0548 2.55274V7.22125C12.0548 7.65852 11.7855 8.05063 11.3774 8.20761L7.88184 9.55205C7.7495 9.60295 7.61331 9.64006 7.47537 9.66337V4.41462ZM6.77084 7.35273V4.41462L2.19598 2.45397C2.19294 2.48658 2.19138 2.51953 2.19138 2.55274V4.36274C2.52193 4.24591 2.87763 4.18234 3.24818 4.18234C5.19369 4.18234 6.77084 5.60177 6.77084 7.35273ZM3.24818 9.81859C3.80208 9.81859 4.31333 9.63596 4.72498 9.32763L6.52174 11.1245C6.65931 11.262 6.88235 11.262 7.01992 11.1245C7.15749 10.9869 7.1575 10.7639 7.01993 10.6263L5.22315 8.82944C5.53144 8.4178 5.71404 7.90659 5.71404 7.35273C5.71404 5.99087 4.61004 4.88687 3.24818 4.88687C1.88632 4.88687 0.782318 5.99087 0.782318 7.35273C0.782318 8.71459 1.88632 9.81859 3.24818 9.81859ZM3.24818 9.11406C2.27542 9.11406 1.48685 8.32549 1.48685 7.35273C1.48685 6.37998 2.27542 5.5914 3.24818 5.5914C4.22093 5.5914 5.00951 6.37998 5.00951 7.35273C5.00951 8.32549 4.22093 9.11406 3.24818 9.11406Z" fill="#666666"/>
</svg>
