<svg width="256" height="66" viewBox="0 0 256 66" fill="none" xmlns="http://www.w3.org/2000/svg">
<rect width="5.86467" height="64.5114" transform="translate(47.6108 0.963867)" fill="#1A1A1A"/>
<rect width="5.86467" height="64.5114" transform="translate(56.4077 0.963867)" fill="#1A1A1A"/>
<rect width="2.93233" height="64.5114" transform="translate(65.2051 0.963867)" fill="#1A1A1A"/>
<rect width="5.86467" height="64.5114" transform="translate(71.0693 0.963867)" fill="#1A1A1A"/>
<rect width="5.86467" height="64.5114" transform="translate(79.8667 0.963867)" fill="#1A1A1A"/>
<rect width="2.93233" height="64.5114" transform="translate(88.6641 0.963867)" fill="#1A1A1A"/>
<rect width="5.86467" height="64.5114" transform="translate(103.325 0.963867)" fill="#1A1A1A"/>
<rect width="5.86467" height="64.5114" transform="translate(0.693359 0.963867)" fill="#1A1A1A"/>
<rect width="2.93233" height="64.5114" transform="translate(112.122 0.963867)" fill="#1A1A1A"/>
<rect width="2.93233" height="64.5114" transform="translate(9.49072 0.963867)" fill="#1A1A1A"/>
<rect width="5.86467" height="64.5114" transform="translate(117.987 0.963867)" fill="#1A1A1A"/>
<rect width="5.86467" height="64.5114" transform="translate(15.355 0.963867)" fill="#1A1A1A"/>
<rect width="2.93233" height="64.5114" transform="translate(126.784 0.963867)" fill="#1A1A1A"/>
<rect width="2.93233" height="64.5114" transform="translate(24.1523 0.963867)" fill="#1A1A1A"/>
<rect width="5.86467" height="64.5114" transform="translate(132.648 0.963867)" fill="#1A1A1A"/>
<rect width="5.86467" height="64.5114" transform="translate(30.0171 0.963867)" fill="#1A1A1A"/>
<rect width="2.93233" height="64.5114" transform="translate(141.445 0.963867)" fill="#1A1A1A"/>
<rect width="2.93233" height="64.5114" transform="translate(38.8135 0.963867)" fill="#1A1A1A"/>
<rect width="5.86467" height="64.5114" transform="translate(156.107 0.963867)" fill="#1A1A1A"/>
<rect width="2.93233" height="64.5114" transform="translate(164.904 0.963867)" fill="#1A1A1A"/>
<rect width="5.86467" height="64.5114" transform="translate(170.769 0.963867)" fill="#1A1A1A"/>
<rect width="5.86467" height="64.5114" transform="translate(185.431 0.963867)" fill="#1A1A1A"/>
<rect width="5.86467" height="64.5114" transform="translate(194.228 0.963867)" fill="#1A1A1A"/>
<rect width="5.86467" height="64.5114" transform="translate(211.822 0.963867)" fill="#1A1A1A"/>
<rect width="2.93233" height="64.5114" transform="translate(220.618 0.963867)" fill="#1A1A1A"/>
<rect width="5.86467" height="64.5114" transform="translate(226.483 0.963867)" fill="#1A1A1A"/>
<rect width="5.86467" height="64.5114" transform="translate(235.28 0.963867)" fill="#1A1A1A"/>
<rect width="2.93233" height="64.5114" transform="translate(244.077 0.963867)" fill="#1A1A1A"/>
<rect width="5.86467" height="64.5114" transform="translate(249.942 0.963867)" fill="#1A1A1A"/>
</svg>
