<svg width="13" height="13" viewBox="0 0 13 13" fill="none" xmlns="http://www.w3.org/2000/svg">
<path d="M11.5784 1.29699C10.8309 0.549465 9.61895 0.549438 8.8714 1.29693L1.47647 8.69117C1.29544 8.87219 1.15904 9.09288 1.07808 9.33576L0.163856 12.0784C0.103966 12.2581 0.150728 12.4562 0.284644 12.5901C0.41856 12.724 0.616644 12.7708 0.796311 12.7109L3.53905 11.7966C3.78187 11.7157 4.0025 11.5793 4.18349 11.3984L10.1385 5.44392L10.4008 5.70619C10.6937 5.99909 10.6937 6.47396 10.4008 6.76686L9.28464 7.88297C9.08938 8.07823 9.08938 8.39482 9.28464 8.59008C9.47991 8.78534 9.79649 8.78534 9.99175 8.59008L11.1079 7.47396C11.7913 6.79054 11.7913 5.68251 11.1079 4.99909L10.8456 4.73684L11.5784 4.00416C12.326 3.25662 12.326 2.04456 11.5784 1.29699ZM9.79975 4.36847C9.79464 4.37318 9.7896 4.37801 9.78464 4.38297C9.77969 4.38792 9.77487 4.39295 9.77017 4.39805L3.47642 10.6912C3.4052 10.7624 3.31837 10.8161 3.22283 10.8479L1.42877 11.446L2.02676 9.65198C2.05862 9.5564 2.1123 9.46955 2.18355 9.39831L9.57847 2.00407C9.9355 1.64707 10.5143 1.64708 10.8713 2.0041C11.2284 2.36113 11.2284 2.94 10.8713 3.29702L9.79975 4.36847Z" fill="#666666"/>
</svg>
