<svg width="10" height="12" viewBox="0 0 10 12" fill="none" xmlns="http://www.w3.org/2000/svg">
<path d="M3.23684 0.552734C2.53922 0.552734 1.97369 1.11827 1.97369 1.81589V5.10454C2.17723 5.04697 2.38837 5.00749 2.60526 4.98795V1.81589C2.60526 1.46708 2.88803 1.18431 3.23684 1.18431H5.76316V3.39484C5.76316 3.91806 6.18731 4.34221 6.71053 4.34221H8.92105V9.39484C8.92105 9.74365 8.63829 10.0264 8.28948 10.0264H6.01597C5.90046 10.2524 5.76093 10.464 5.60074 10.658H8.28948C8.9871 10.658 9.55263 10.0925 9.55263 9.39484V3.97224C9.55263 3.72098 9.45282 3.48001 9.27516 3.30235L6.80302 0.830212C6.62535 0.652546 6.38439 0.552734 6.13313 0.552734H3.23684ZM8.79025 3.71063H6.71053C6.53612 3.71063 6.39474 3.56925 6.39474 3.39484V1.31512L8.79025 3.71063ZM5.76316 8.44747C5.76316 10.0171 4.49071 11.2896 2.92105 11.2896C1.3514 11.2896 0.078949 10.0171 0.078949 8.44747C0.078949 6.87782 1.3514 5.60537 2.92105 5.60537C4.49071 5.60537 5.76316 6.87782 5.76316 8.44747ZM3.23684 7.18431C3.23684 7.00991 3.09546 6.86852 2.92105 6.86852C2.74665 6.86852 2.60526 7.00991 2.60526 7.18431V8.13168H1.6579C1.48349 8.13168 1.34211 8.27307 1.34211 8.44747C1.34211 8.62188 1.48349 8.76326 1.6579 8.76326H2.60526L2.60526 9.71063C2.60526 9.88503 2.74665 10.0264 2.92105 10.0264C3.09546 10.0264 3.23684 9.88503 3.23684 9.71063V8.76326H4.18421C4.35862 8.76326 4.5 8.62188 4.5 8.44747C4.5 8.27307 4.35862 8.13168 4.18421 8.13168H3.23684V7.18431Z" fill="#B3B3B3"/>
</svg>
