<svg width="14" height="14" viewBox="0 0 14 14" fill="none" xmlns="http://www.w3.org/2000/svg">
<path d="M12.2641 6.73643C12.2641 3.64363 9.75688 1.13643 6.66409 1.13643C3.57129 1.13643 1.06409 3.64363 1.06409 6.73643V7.53643H3.86409C4.085 7.53643 4.26409 7.71551 4.26409 7.93643V12.7364C4.26409 12.9573 4.085 13.1364 3.86409 13.1364H1.86409C0.980432 13.1364 0.264087 12.4201 0.264087 11.5364V6.73643C0.264087 3.2018 3.12946 0.336426 6.66409 0.336426C10.1987 0.336426 13.0641 3.2018 13.0641 6.73643V11.5364C13.0641 12.4201 12.3477 13.1364 11.4641 13.1364H9.46409C9.24317 13.1364 9.06409 12.9573 9.06409 12.7364V7.93643C9.06409 7.71551 9.24317 7.53643 9.46409 7.53643H12.2641V6.73643ZM12.2641 8.33643H9.86409V12.3364H11.4641C11.9059 12.3364 12.2641 11.9783 12.2641 11.5364V8.33643ZM1.06409 8.33643V11.5364C1.06409 11.9783 1.42226 12.3364 1.86409 12.3364H3.46409V8.33643H1.06409Z" fill="#666666"/>
</svg>
