<svg width="13" height="12" viewBox="0 0 13 12" fill="none" xmlns="http://www.w3.org/2000/svg">
<g clip-path="url(#clip0_2347_5953)">
<path d="M6.41857 0.697266C8.75319 0.697266 10.6458 2.58984 10.6458 4.92446C10.6458 6.67416 9.31204 8.50804 6.70039 10.4668C6.53339 10.592 6.30376 10.592 6.13676 10.4668C3.52511 8.50804 2.19138 6.67416 2.19138 4.92446C2.19138 2.58984 4.08396 0.697266 6.41857 0.697266ZM6.41857 3.51539C5.64037 3.51539 5.00951 4.14625 5.00951 4.92446C5.00951 5.70266 5.64037 6.33352 6.41857 6.33352C7.19678 6.33352 7.82764 5.70266 7.82764 4.92446C7.82764 4.14625 7.19678 3.51539 6.41857 3.51539Z" fill="#666666"/>
</g>
<defs>
<clipPath id="clip0_2347_5953">
<rect width="11.2725" height="11.2725" fill="white" transform="translate(0.782318 0.227539)"/>
</clipPath>
</defs>
</svg>
