<svg width="7" height="10" viewBox="0 0 7 10" fill="none" xmlns="http://www.w3.org/2000/svg">
<path d="M0.600449 1.48475C0.600449 0.706543 1.23131 0.0756836 2.00951 0.0756836H4.82764C5.60584 0.0756836 6.2367 0.706543 6.2367 1.48475V8.06038C6.2367 8.83858 5.60584 9.46944 4.82764 9.46944H2.00951C1.23131 9.46944 0.600449 8.83858 0.600449 8.06038V1.48475ZM2.94889 6.65131C2.68949 6.65131 2.4792 6.8616 2.4792 7.121C2.4792 7.3804 2.68949 7.59069 2.94889 7.59069H3.88826C4.14767 7.59069 4.35795 7.3804 4.35795 7.121C4.35795 6.8616 4.14767 6.65131 3.88826 6.65131H2.94889Z" fill="#666666"/>
</svg>
