<svg width="11" height="10" viewBox="0 0 11 10" fill="none" xmlns="http://www.w3.org/2000/svg">
<path d="M2.10525 1.13145C2.10525 0.608233 2.5294 0.184082 3.05262 0.184082H7.47367C7.99689 0.184082 8.42104 0.608233 8.42104 1.13145V1.44724H8.73683C9.60885 1.44724 10.3158 2.15416 10.3158 3.02619V6.18408C10.3158 6.7073 9.89162 7.13145 9.3684 7.13145H8.42104V8.07882C8.42104 8.60204 7.99689 9.02619 7.47367 9.02619H3.05262C2.5294 9.02619 2.10525 8.60204 2.10525 8.07882V7.13145H1.15788C0.634661 7.13145 0.21051 6.7073 0.21051 6.18408V3.02619C0.21051 2.15416 0.917429 1.44724 1.78946 1.44724H2.10525V1.13145ZM2.73683 1.44724H7.78946V1.13145C7.78946 0.957045 7.64807 0.815661 7.47367 0.815661H3.05262C2.87821 0.815661 2.73683 0.957045 2.73683 1.13145V1.44724ZM2.10525 6.49987V5.5525C2.10525 5.02929 2.5294 4.60513 3.05262 4.60513H7.47367C7.99689 4.60513 8.42104 5.02929 8.42104 5.5525V6.49987H9.3684C9.54281 6.49987 9.68419 6.35849 9.68419 6.18408V3.02619C9.68419 2.50297 9.26004 2.07882 8.73683 2.07882H1.78946C1.26624 2.07882 0.842089 2.50297 0.842089 3.02619V6.18408C0.842089 6.35849 0.983473 6.49987 1.15788 6.49987H2.10525ZM3.05262 5.23671C2.87821 5.23671 2.73683 5.3781 2.73683 5.5525V8.07882C2.73683 8.25322 2.87821 8.39461 3.05262 8.39461H7.47367C7.64807 8.39461 7.78946 8.25322 7.78946 8.07882V5.5525C7.78946 5.3781 7.64807 5.23671 7.47367 5.23671H3.05262Z" fill="#FFFFFF"/>
</svg>
