<svg width="17" height="17" viewBox="0 0 17 17" fill="none" xmlns="http://www.w3.org/2000/svg">
<path d="M2.95311 1.89599C2.19561 1.89599 1.58154 2.51006 1.58154 3.26756V14.2402C1.58154 14.9977 2.19561 15.6117 2.95311 15.6117V10.8112C2.95311 9.67498 3.87422 8.75387 5.01047 8.75387H11.8684C13.0046 8.75387 13.9257 9.67498 13.9257 10.8112V15.6117C14.6832 15.6117 15.2973 14.9977 15.2973 14.2402V5.49133C15.2973 5.12756 15.1528 4.7787 14.8956 4.52148L12.6718 2.29771C12.4146 2.04049 12.0657 1.89599 11.702 1.89599H11.1826V3.95335C11.1826 5.0896 10.2615 6.01072 9.1252 6.01072H6.38205C5.2458 6.01072 4.32469 5.0896 4.32469 3.95335V1.89599H2.95311ZM5.69626 1.89599V3.95335C5.69626 4.3321 6.0033 4.63914 6.38205 4.63914H9.1252C9.50395 4.63914 9.81099 4.3321 9.81099 3.95335V1.89599H5.69626ZM12.5541 15.6117V10.8112C12.5541 10.4325 12.2471 10.1254 11.8684 10.1254H5.01047C4.63172 10.1254 4.32469 10.4325 4.32469 10.8112V15.6117H12.5541ZM0.209961 3.26756C0.209961 1.75256 1.43811 0.524414 2.95311 0.524414H11.702C12.4295 0.524414 13.1272 0.813424 13.6417 1.32786L15.8654 3.55163C16.3799 4.06607 16.6689 4.7638 16.6689 5.49133V14.2402C16.6689 15.7552 15.4407 16.9833 13.9257 16.9833H2.95311C1.43811 16.9833 0.209961 15.7552 0.209961 14.2402V3.26756Z" fill="white"/>
</svg>
