<svg width="18" height="17" viewBox="0 0 18 17" fill="none" xmlns="http://www.w3.org/2000/svg">
<path d="M11.8863 0.668879C11.6796 0.508072 11.3993 0.479076 11.164 0.594153C10.9287 0.709231 10.7795 0.948282 10.7795 1.21021V3.94339C10.7207 3.94589 10.6591 3.94925 10.5948 3.95362C10.0422 3.99129 9.28624 4.10567 8.47688 4.41563C7.50614 4.7874 6.45735 5.44162 5.60318 6.57479C4.74919 7.70772 4.12047 9.27862 3.92445 11.4349C3.8983 11.7225 4.05506 11.9956 4.31654 12.1181C4.57801 12.2405 4.88818 12.1861 5.09234 11.9819C6.72303 10.3513 8.34217 9.54626 9.53907 9.1473C10.0331 8.98263 10.4562 8.88681 10.7795 8.83109V11.497C10.7795 11.7671 10.938 12.012 11.1844 12.1226C11.4307 12.2333 11.7191 12.189 11.9209 12.0096L18.093 6.52329C18.2453 6.38793 18.3295 6.19186 18.3228 5.98823C18.3161 5.7846 18.2192 5.59448 18.0584 5.46939L11.8863 0.668879ZM11.387 5.32052L11.3908 5.32088C11.584 5.34171 11.7779 5.27975 11.9227 5.15015C12.068 5.02005 12.1511 4.83421 12.1511 4.63915V2.6124L16.5656 6.04589L12.1511 9.96988V8.06808C12.1511 7.68933 11.844 7.3823 11.4653 7.3823L11.4638 7.3823L11.462 7.3823L11.4574 7.38233L11.4445 7.38249L11.4038 7.38349C11.3703 7.38457 11.3239 7.38663 11.2656 7.39051C11.1491 7.39828 10.9846 7.41339 10.779 7.44277C10.3679 7.50149 9.79155 7.61737 9.10534 7.84611C8.11168 8.17733 6.89079 8.74425 5.61126 9.71209C5.87803 8.7286 6.26385 7.97694 6.69845 7.40039C7.37241 6.50629 8.19439 5.99254 8.96741 5.69649C9.61875 5.44704 10.2343 5.35296 10.6881 5.32202C10.914 5.30662 11.0968 5.30708 11.22 5.31105C11.2814 5.31304 11.3277 5.31589 11.3568 5.31804L11.387 5.32052ZM3.92161 1.89599C2.02786 1.89599 0.492676 3.43118 0.492676 5.32493V13.5544C0.492676 15.4481 2.02786 16.9833 3.92161 16.9833H12.1511C14.0448 16.9833 15.58 15.4481 15.58 13.5544V12.1828C15.58 11.8041 15.273 11.497 14.8942 11.497C14.5155 11.497 14.2084 11.8041 14.2084 12.1828V13.5544C14.2084 14.6906 13.2873 15.6117 12.1511 15.6117H3.92161C2.78536 15.6117 1.86425 14.6906 1.86425 13.5544V5.32493C1.86425 4.18868 2.78536 3.26756 3.92161 3.26756H6.66476C7.04352 3.26756 7.35055 2.96053 7.35055 2.58178C7.35055 2.20303 7.04352 1.89599 6.66476 1.89599H3.92161Z" fill="#1A1A1A"/>
</svg>
