<svg width="36" height="37" viewBox="0 0 36 37" fill="none" xmlns="http://www.w3.org/2000/svg">
<path d="M18 0.5C8.05887 0.5 0 8.55887 0 18.5C0 28.4411 8.05887 36.5 18 36.5C27.9411 36.5 36 28.4411 36 18.5C36 8.55887 27.9411 0.5 18 0.5ZM4.5 18.5C4.5 11.0442 10.5442 5 18 5C25.4558 5 31.5 11.0442 31.5 18.5C31.5 25.9558 25.4558 32 18 32C10.5442 32 4.5 25.9558 4.5 18.5ZM25.591 13.159C26.4697 14.0377 26.4697 15.4623 25.591 16.341L17.341 24.591C16.4623 25.4697 15.0377 25.4697 14.159 24.591L11.159 21.591C10.2803 20.7123 10.2803 19.2877 11.159 18.409C12.0377 17.5303 13.4623 17.5303 14.341 18.409L15.75 19.818L22.409 13.159C23.2877 12.2803 24.7123 12.2803 25.591 13.159Z" fill="#188B54"/>
</svg>
