<svg width="21" height="21" viewBox="0 0 21 21" fill="none" xmlns="http://www.w3.org/2000/svg">
<path d="M19.6134 1.14175C18.3398 -0.131893 16.2748 -0.131885 15.0012 1.14177L2.73722 13.4063C2.37196 13.7715 2.10691 14.2247 1.96763 14.7222L0.684674 19.3042C0.62408 19.5206 0.684921 19.7528 0.843829 19.9117C1.00274 20.0706 1.235 20.1315 1.45141 20.0709L6.03328 18.7881C6.53081 18.6488 6.98407 18.3837 7.34939 18.0183L19.6134 5.7538C20.887 4.4802 20.887 2.41534 19.6134 1.14175ZM15.881 2.02148C16.6687 1.2337 17.9459 1.2337 18.7337 2.02147C19.5214 2.8092 19.5214 4.08635 18.7337 4.87409L17.457 6.15082L14.6043 3.29815L15.881 2.02148ZM13.7246 4.17789L16.5773 7.03056L6.46965 17.1386C6.25541 17.3529 5.98961 17.5083 5.69785 17.59L2.18089 18.5747L3.16567 15.0576C3.24735 14.7659 3.40277 14.5002 3.61697 14.286L13.7246 4.17789Z" fill="white"/>
</svg>
