<svg width="17" height="15" viewBox="0 0 17 15" fill="none" xmlns="http://www.w3.org/2000/svg">
<path d="M0.166626 3.12467C0.166626 1.85902 1.19264 0.833008 2.45829 0.833008H14.5416C15.8073 0.833008 16.8333 1.85902 16.8333 3.12467V11.8747C16.8333 13.1403 15.8073 14.1663 14.5416 14.1663H2.45829C1.19264 14.1663 0.166626 13.1403 0.166626 11.8747V3.12467ZM2.45829 2.08301C1.883 2.08301 1.41663 2.54938 1.41663 3.12467V11.8747C1.41663 12.45 1.883 12.9163 2.45829 12.9163H14.5416C15.1169 12.9163 15.5833 12.45 15.5833 11.8747V3.12467C15.5833 2.54938 15.1169 2.08301 14.5416 2.08301H2.45829ZM2.66663 5.20801C2.66663 4.63271 3.133 4.16634 3.70829 4.16634H8.29163C8.86692 4.16634 9.33329 4.63271 9.33329 5.20801V9.79134C9.33329 10.3666 8.86692 10.833 8.29163 10.833H3.70829C3.133 10.833 2.66663 10.3666 2.66663 9.79134V5.20801ZM10.1666 4.79134C10.1666 4.44616 10.4464 4.16634 10.7916 4.16634H13.7083C14.0535 4.16634 14.3333 4.44616 14.3333 4.79134C14.3333 5.13652 14.0535 5.41634 13.7083 5.41634H10.7916C10.4464 5.41634 10.1666 5.13652 10.1666 4.79134ZM10.7916 6.66634C10.4464 6.66634 10.1666 6.94616 10.1666 7.29134C10.1666 7.63652 10.4464 7.91634 10.7916 7.91634H13.7083C14.0535 7.91634 14.3333 7.63652 14.3333 7.29134C14.3333 6.94616 14.0535 6.66634 13.7083 6.66634H10.7916ZM10.1666 9.79134C10.1666 9.44616 10.4464 9.16634 10.7916 9.16634H13.7083C14.0535 9.16634 14.3333 9.44616 14.3333 9.79134C14.3333 10.1365 14.0535 10.4163 13.7083 10.4163H10.7916C10.4464 10.4163 10.1666 10.1365 10.1666 9.79134Z" fill="#1A1A1A"/>
</svg>
