<svg width="15" height="15" viewBox="0 0 15 15" fill="none" xmlns="http://www.w3.org/2000/svg">
<path d="M7.5 2.5C6.39543 2.5 5.5 3.39543 5.5 4.5C5.5 5.60457 6.39543 6.5 7.5 6.5C8.60457 6.5 9.5 5.60457 9.5 4.5C9.5 3.39543 8.60457 2.5 7.5 2.5ZM10 7.5L4.99998 7.5C4.17156 7.5 3.5 8.17161 3.5 9C3.5 10.1161 3.95897 11.0103 4.71215 11.6148C5.45342 12.2098 6.44692 12.5 7.5 12.5C8.55308 12.5 9.54658 12.2098 10.2879 11.6148C11.041 11.0103 11.5 10.1161 11.5 9C11.5 8.17157 10.8284 7.5 10 7.5ZM3.5 0.5C1.84315 0.5 0.5 1.84315 0.5 3.5V11.5C0.5 13.1569 1.84315 14.5 3.5 14.5H11.5C13.1569 14.5 14.5 13.1569 14.5 11.5V3.5C14.5 1.84315 13.1569 0.5 11.5 0.5H3.5ZM1.5 3.5C1.5 2.39543 2.39543 1.5 3.5 1.5H11.5C12.6046 1.5 13.5 2.39543 13.5 3.5V11.5C13.5 12.6046 12.6046 13.5 11.5 13.5H3.5C2.39543 13.5 1.5 12.6046 1.5 11.5V3.5Z" fill="#1A1A1A"/>
</svg>
