<svg width="17" height="14" viewBox="0 0 17 14" fill="none" xmlns="http://www.w3.org/2000/svg">
<path d="M14 0.5C15.3807 0.5 16.5 1.61929 16.5 3V11C16.5 12.3807 15.3807 13.5 14 13.5H3C1.61929 13.5 0.5 12.3807 0.5 11V3C0.5 1.61929 1.61929 0.5 3 0.5H14ZM15.5 4.461L8.75351 8.43097C8.62311 8.50767 8.46661 8.52045 8.32751 8.46932L8.24649 8.43097L1.5 4.463V11C1.5 11.8284 2.17157 12.5 3 12.5H14C14.8284 12.5 15.5 11.8284 15.5 11V4.461ZM14 1.5H3C2.17157 1.5 1.5 2.17157 1.5 3V3.302L8.5 7.41991L15.5 3.301V3C15.5 2.17157 14.8284 1.5 14 1.5Z" fill="#1A1A1A"/>
</svg>
