<svg width="11" height="17" viewBox="0 0 11 17" fill="none" xmlns="http://www.w3.org/2000/svg">
<path d="M4.5 12.5C4.22386 12.5 4 12.7239 4 13C4 13.2761 4.22386 13.5 4.5 13.5H6.5C6.77614 13.5 7 13.2761 7 13C7 12.7239 6.77614 12.5 6.5 12.5H4.5ZM2.5 0.5C1.39543 0.5 0.5 1.39543 0.5 2.5V14.5C0.5 15.6046 1.39543 16.5 2.5 16.5H8.5C9.60457 16.5 10.5 15.6046 10.5 14.5V2.5C10.5 1.39543 9.60457 0.5 8.5 0.5H2.5ZM1.5 2.5C1.5 1.94772 1.94772 1.5 2.5 1.5H8.5C9.05228 1.5 9.5 1.94772 9.5 2.5V14.5C9.5 15.0523 9.05228 15.5 8.5 15.5H2.5C1.94772 15.5 1.5 15.0523 1.5 14.5V2.5Z" fill="#1A1A1A"/>
</svg>
