<svg width="17" height="17" viewBox="0 0 17 17" fill="none" xmlns="http://www.w3.org/2000/svg">
<path d="M9.5 10V13C9.5 13.2761 9.72386 13.5 10 13.5H13C13.2761 13.5 13.5 13.2761 13.5 13V10C13.5 9.72386 13.2761 9.5 13 9.5H10C9.72386 9.5 9.5 9.72386 9.5 10ZM10.5 12.5V10.5H12.5V12.5H10.5ZM3.50001 0.5C3.35162 0.5 3.21089 0.565912 3.1159 0.679908L0.615895 3.67991C0.539552 3.77152 0.500019 3.8852 0.5 4V5.5C0.5 6.3885 0.886251 7.18679 1.5 7.73611V16C1.5 16.2761 1.72386 16.5 2 16.5H15C15.2761 16.5 15.5 16.2761 15.5 16V7.73611C16.1137 7.18679 16.5 6.3885 16.5 5.5V4C16.5 3.99401 16.5 3.98813 16.5001 3.98233C16.5005 3.89121 16.5009 3.82003 16.3841 3.67991L13.8841 0.679908C13.7891 0.565912 13.6484 0.5 13.5 0.5H3.50001ZM3.5 7.5C2.39543 7.5 1.5 6.60457 1.5 5.5V4.5H5.5V5.5C5.5 6.60457 4.60457 7.5 3.5 7.5ZM8.5 7.5C7.39543 7.5 6.5 6.60457 6.5 5.5V4.5H10.5V5.5C10.5 6.60457 9.60457 7.5 8.5 7.5ZM13.5 7.5C12.3954 7.5 11.5 6.60457 11.5 5.5V4.5H15.5V5.5C15.5 6.60457 14.6046 7.5 13.5 7.5ZM3.5 15.5H2.5V8.32929C2.81278 8.43985 3.14936 8.5 3.5 8.5C4.54349 8.5 5.46254 7.96725 6 7.1589C6.53746 7.96725 7.45651 8.5 8.5 8.5C9.54349 8.5 10.4625 7.96724 11 7.15889C11.5375 7.96724 12.4565 8.5 13.5 8.5C13.8506 8.5 14.1872 8.43985 14.5 8.32929V15.5H8.5V10C8.5 9.72386 8.27614 9.5 8 9.5H4C3.72386 9.5 3.5 9.72386 3.5 10V15.5ZM5.63964 3.5H2.06753L3.73419 1.5H6.3063L5.63964 3.5ZM10.3063 3.5H6.69373L7.3604 1.5H9.63962L10.3063 3.5ZM11.3604 3.5L10.6937 1.5H13.2658L14.9325 3.5H11.3604ZM4.5 15.5V10.5H7.5V15.5H4.5Z" fill="#1A1A1A"/>
</svg>
