<svg width="15" height="17" viewBox="0 0 15 17" fill="none" xmlns="http://www.w3.org/2000/svg">
<path d="M7.5 0.5C5.29086 0.5 3.5 2.29086 3.5 4.5C3.5 6.70914 5.29086 8.5 7.5 8.5C9.70914 8.5 11.5 6.70914 11.5 4.5C11.5 2.29086 9.70914 0.5 7.5 0.5ZM4.5 4.5C4.5 2.84315 5.84315 1.5 7.5 1.5C9.15685 1.5 10.5 2.84315 10.5 4.5C10.5 6.15685 9.15685 7.5 7.5 7.5C5.84315 7.5 4.5 6.15685 4.5 4.5ZM2.50873 9.5C1.40315 9.5 0.5 10.3869 0.5 11.5C0.5 13.1912 1.33281 14.4663 2.63499 15.2966C3.91697 16.114 5.64526 16.5 7.5 16.5C9.35474 16.5 11.083 16.114 12.365 15.2966C13.6672 14.4663 14.5 13.1912 14.5 11.5C14.5 10.3956 13.6045 9.50001 12.5 9.50001L2.50873 9.5ZM1.5 11.5C1.5 10.9467 1.94786 10.5 2.50873 10.5L12.5 10.5C13.0522 10.5 13.5 10.9478 13.5 11.5C13.5 12.8088 12.8777 13.7837 11.8274 14.4534C10.7568 15.136 9.23511 15.5 7.5 15.5C5.76489 15.5 4.24318 15.136 3.17262 14.4534C2.12226 13.7837 1.5 12.8088 1.5 11.5Z" fill="#1A1A1A"/>
</svg>
