<svg width="11" height="12" viewBox="0 0 11 12" fill="none" xmlns="http://www.w3.org/2000/svg">
<path d="M1.73662 2.07744L1.73633 8.49219C1.73633 9.81767 2.76786 10.9022 4.07195 10.9869L4.23633 10.9922L8.65073 10.9929C8.44461 11.5751 7.88917 11.9922 7.23633 11.9922H3.73633C2.07947 11.9922 0.736328 10.649 0.736328 8.99219V3.49219C0.736328 2.83897 1.15387 2.28327 1.73662 2.07744ZM9.23633 -0.0078125C10.0648 -0.0078125 10.7363 0.66376 10.7363 1.49219V8.49219C10.7363 9.32061 10.0648 9.99219 9.23633 9.99219H4.23633C3.4079 9.99219 2.73633 9.32061 2.73633 8.49219V1.49219C2.73633 0.66376 3.4079 -0.0078125 4.23633 -0.0078125H9.23633ZM9.23633 0.992188H4.23633C3.96019 0.992188 3.73633 1.21605 3.73633 1.49219V8.49219C3.73633 8.76833 3.96019 8.99219 4.23633 8.99219H9.23633C9.51247 8.99219 9.73633 8.76833 9.73633 8.49219V1.49219C9.73633 1.21605 9.51247 0.992188 9.23633 0.992188Z" fill="#666666"/>
</svg>
