<svg width="11" height="11" viewBox="0 0 11 11" fill="none" xmlns="http://www.w3.org/2000/svg">
<path d="M4.81577 1.81528H6.71051C6.71051 1.29206 6.28636 0.867907 5.76314 0.867907C5.23992 0.867907 4.81577 1.29206 4.81577 1.81528ZM4.18419 1.81528C4.18419 0.943247 4.89111 0.236328 5.76314 0.236328C6.63517 0.236328 7.34209 0.943247 7.34209 1.81528H10.5C10.6744 1.81528 10.8158 1.95666 10.8158 2.13106C10.8158 2.30547 10.6744 2.44685 10.5 2.44685H9.83406L9.08026 8.97983C8.96994 9.93589 8.16042 10.6574 7.19801 10.6574H4.32827C3.36586 10.6574 2.55634 9.93589 2.44602 8.97983L1.69222 2.44685H1.0263C0.851894 2.44685 0.71051 2.30547 0.71051 2.13106C0.71051 1.95666 0.851894 1.81528 1.0263 1.81528H4.18419ZM3.07344 8.90743C3.14698 9.54481 3.68667 10.0258 4.32827 10.0258H7.19801C7.83962 10.0258 8.3793 9.54481 8.45284 8.90743L9.19829 2.44685H2.32799L3.07344 8.90743ZM4.81577 4.0258C4.99018 4.0258 5.13156 4.16719 5.13156 4.34159V8.13106C5.13156 8.30547 4.99018 8.44685 4.81577 8.44685C4.64137 8.44685 4.49998 8.30547 4.49998 8.13106V4.34159C4.49998 4.16719 4.64137 4.0258 4.81577 4.0258ZM7.0263 4.34159C7.0263 4.16719 6.88492 4.0258 6.71051 4.0258C6.5361 4.0258 6.39472 4.16719 6.39472 4.34159V8.13106C6.39472 8.30547 6.5361 8.44685 6.71051 8.44685C6.88492 8.44685 7.0263 8.30547 7.0263 8.13106V4.34159Z" fill="#B3B3B3"/>
</svg>
