<svg width="11" height="11" viewBox="0 0 11 11" fill="none" xmlns="http://www.w3.org/2000/svg">
<path d="M4.81583 1.81528H6.71057C6.71057 1.29206 6.28642 0.867907 5.7632 0.867907C5.23999 0.867907 4.81583 1.29206 4.81583 1.81528ZM4.18426 1.81528C4.18426 0.943247 4.89117 0.236328 5.7632 0.236328C6.63523 0.236328 7.34215 0.943247 7.34215 1.81528H10.5C10.6745 1.81528 10.8158 1.95666 10.8158 2.13106C10.8158 2.30547 10.6745 2.44685 10.5 2.44685H9.83412L9.08032 8.97983C8.97 9.93589 8.16048 10.6574 7.19807 10.6574H4.32833C3.36593 10.6574 2.5564 9.93589 2.44609 8.97983L1.69228 2.44685H1.02636C0.851955 2.44685 0.710571 2.30547 0.710571 2.13106C0.710571 1.95666 0.851955 1.81528 1.02636 1.81528H4.18426ZM3.0735 8.90743C3.14705 9.54481 3.68673 10.0258 4.32833 10.0258H7.19807C7.83968 10.0258 8.37936 9.54481 8.4529 8.90743L9.19835 2.44685H2.32805L3.0735 8.90743ZM4.81583 4.0258C4.99024 4.0258 5.13162 4.16719 5.13162 4.34159V8.13106C5.13162 8.30547 4.99024 8.44685 4.81583 8.44685C4.64143 8.44685 4.50004 8.30547 4.50004 8.13106V4.34159C4.50004 4.16719 4.64143 4.0258 4.81583 4.0258ZM7.02636 4.34159C7.02636 4.16719 6.88498 4.0258 6.71057 4.0258C6.53617 4.0258 6.39478 4.16719 6.39478 4.34159V8.13106C6.39478 8.30547 6.53617 8.44685 6.71057 8.44685C6.88498 8.44685 7.02636 8.30547 7.02636 8.13106V4.34159Z" fill="#F32034"/>
</svg>
