<svg width="12" height="12" viewBox="0 0 12 12" fill="none" xmlns="http://www.w3.org/2000/svg">
<path d="M-0.172119 2.25C-0.172119 1.14543 0.723311 0.25 1.82788 0.25H2.62788C2.84879 0.25 3.02788 0.429086 3.02788 0.65C3.02788 0.870914 2.84879 1.05 2.62788 1.05H1.82788C1.16514 1.05 0.627881 1.58726 0.627881 2.25V3.05C0.627881 3.27091 0.448795 3.45 0.227881 3.45C0.00696695 3.45 -0.172119 3.27091 -0.172119 3.05V2.25ZM9.42788 0.65C9.42788 0.429086 9.60697 0.25 9.82788 0.25H10.6279C11.7325 0.25 12.6279 1.14543 12.6279 2.25V3.05C12.6279 3.27091 12.4488 3.45 12.2279 3.45C12.007 3.45 11.8279 3.27091 11.8279 3.05V2.25C11.8279 1.58726 11.2906 1.05 10.6279 1.05H9.82788C9.60697 1.05 9.42788 0.870914 9.42788 0.65ZM0.227881 8.25C0.448795 8.25 0.627881 8.42909 0.627881 8.65V9.45C0.627881 10.1127 1.16514 10.65 1.82788 10.65H2.62788C2.84879 10.65 3.02788 10.8291 3.02788 11.05C3.02788 11.2709 2.84879 11.45 2.62788 11.45H1.82788C0.723311 11.45 -0.172119 10.5546 -0.172119 9.45V8.65C-0.172119 8.42909 0.00696695 8.25 0.227881 8.25ZM12.2279 8.25C12.4488 8.25 12.6279 8.42909 12.6279 8.65V9.45C12.6279 10.5546 11.7325 11.45 10.6279 11.45H9.82788C9.60697 11.45 9.42788 11.2709 9.42788 11.05C9.42788 10.8291 9.60697 10.65 9.82788 10.65H10.6279C11.2906 10.65 11.8279 10.1127 11.8279 9.45V8.65C11.8279 8.42909 12.007 8.25 12.2279 8.25ZM2.62788 2.65C2.84879 2.65 3.02788 2.82909 3.02788 3.05V8.65C3.02788 8.87091 2.84879 9.05 2.62788 9.05C2.40697 9.05 2.22788 8.87091 2.22788 8.65V3.05C2.22788 2.82909 2.40697 2.65 2.62788 2.65ZM5.42788 3.05C5.42788 2.82909 5.2488 2.65 5.02788 2.65C4.80697 2.65 4.62788 2.82909 4.62788 3.05V8.65C4.62788 8.87091 4.80697 9.05 5.02788 9.05C5.2488 9.05 5.42788 8.87091 5.42788 8.65V3.05ZM7.42788 2.65C7.64879 2.65 7.82788 2.82909 7.82788 3.05V8.65C7.82788 8.87091 7.64879 9.05 7.42788 9.05C7.20697 9.05 7.02788 8.87091 7.02788 8.65V3.05C7.02788 2.82909 7.20697 2.65 7.42788 2.65ZM10.2279 3.05C10.2279 2.82909 10.0488 2.65 9.82788 2.65C9.60697 2.65 9.42788 2.82909 9.42788 3.05V8.65C9.42788 8.87091 9.60697 9.05 9.82788 9.05C10.0488 9.05 10.2279 8.87091 10.2279 8.65V3.05Z" fill="#666666"/>
</svg>
