<svg width="21" height="20" viewBox="0 0 21 20" fill="none" xmlns="http://www.w3.org/2000/svg">
<path d="M10.579 -0.00195312C16.1027 -0.00195312 20.5806 4.47589 20.5806 9.9996C20.5806 15.5233 16.1027 20.0011 10.579 20.0011C5.0553 20.0011 0.577454 15.5233 0.577454 9.9996C0.577454 4.47589 5.0553 -0.00195312 10.579 -0.00195312ZM10.579 1.49805C5.88373 1.49805 2.07745 5.30432 2.07745 9.9996C2.07745 14.6949 5.88373 18.5011 10.579 18.5011C15.2743 18.5011 19.0806 14.6949 19.0806 9.9996C19.0806 5.30432 15.2743 1.49805 10.579 1.49805ZM10.5754 8.49863C10.9551 8.49838 11.269 8.78033 11.3189 9.14637L11.3259 9.24814L11.3295 14.7497C11.3297 15.1639 10.9942 15.5 10.5799 15.5002C10.2002 15.5005 9.88627 15.2185 9.83637 14.8525L9.82945 14.7507L9.82585 9.24912C9.82558 8.83491 10.1611 8.4989 10.5754 8.49863ZM10.5795 5.00086C11.131 5.00086 11.5781 5.44798 11.5781 5.99953C11.5781 6.55107 11.131 6.99819 10.5795 6.99819C10.0279 6.99819 9.58079 6.55107 9.58079 5.99953C9.58079 5.44798 10.0279 5.00086 10.5795 5.00086Z" fill="#1A1A1A"/>
</svg>
