<svg width="24" height="25" viewBox="0 0 24 25" fill="none" xmlns="http://www.w3.org/2000/svg">
<path d="M13 6.26108C13 6.81336 12.5523 7.26108 12 7.26108C11.4477 7.26108 11 6.81336 11 6.26108C11 5.70879 11.4477 5.26108 12 5.26108C12.5523 5.26108 13 5.70879 13 6.26108ZM13.0316 2.33539C12.417 1.8869 11.583 1.8869 10.9684 2.33539L3.54657 7.75134C2.56949 8.46435 3.07382 10.0111 4.2834 10.0111H4.5L4.5 15.8109C3.60958 16.2661 3 17.1924 3 18.2611V19.7611C3 20.1753 3.33579 20.5111 3.75 20.5111H20.25C20.6642 20.5111 21 20.1753 21 19.7611V18.2611C21 17.1924 20.3904 16.2661 19.5 15.8109V10.0111H19.7166C20.9262 10.0111 21.4305 8.46435 20.4534 7.75134L13.0316 2.33539ZM11.8526 3.54708C11.9404 3.48301 12.0596 3.48301 12.1474 3.54708L18.9499 8.51108H5.05011L11.8526 3.54708ZM18 10.0111V15.5111H16V10.0111H18ZM14.5 10.0111V15.5111H12.75V10.0111H14.5ZM11.25 10.0111V15.5111H9.5L9.5 10.0111H11.25ZM5.75 17.0111H18.25C18.9404 17.0111 19.5 17.5707 19.5 18.2611V19.0111H4.5V18.2611C4.5 17.5707 5.05964 17.0111 5.75 17.0111ZM6 15.5111L6 10.0111H8L8 15.5111H6Z" fill="white"/>
</svg>
