<svg width="24" height="25" viewBox="0 0 24 25" fill="none" xmlns="http://www.w3.org/2000/svg">
<path d="M13.4089 2.52277C12.5053 2.15647 11.4947 2.15647 10.5911 2.52277L3.09252 5.56274C2.43211 5.83048 2 6.47192 2 7.18454V16.8372C2 17.5499 2.43211 18.1913 3.09252 18.459L10.5911 21.499C10.7315 21.5559 10.8746 21.604 11.0194 21.6433C11.0298 21.5687 11.0444 21.4937 11.0632 21.4183L11.5209 19.5876C11.6829 18.9396 12.018 18.3478 12.4903 17.8755L12.7503 17.6154V10.7754L20.5 7.78317V11.0178C21.0085 10.9845 21.5233 11.0689 22 11.2711V7.18454C22 6.47192 21.5679 5.83048 20.9075 5.56274L13.4089 2.52277ZM11.1547 3.91288C11.6968 3.6931 12.3032 3.6931 12.8453 3.91288L19.4376 6.58543L16.7684 7.61605L9.24097 4.68871L11.1547 3.91288ZM7.21472 5.51016L14.6917 8.41788L12.0013 9.45668L4.58967 6.57437L7.21472 5.51016ZM3.5 7.76004L11.2503 10.7741V20.1452C11.2183 20.1338 11.1863 20.1217 11.1547 20.1089L3.65607 17.0689C3.56173 17.0307 3.5 16.939 3.5 16.8372V7.76004ZM19.0999 12.6802L13.1974 18.5826C12.8533 18.9268 12.6092 19.358 12.4911 19.8301L12.0334 21.6608C11.8344 22.4569 12.5556 23.1781 13.3517 22.9791L15.1824 22.5214C15.6545 22.4033 16.0857 22.1592 16.4299 21.8151L22.3323 15.9126C23.2249 15.02 23.2249 13.5728 22.3323 12.6802C21.4397 11.7876 19.9925 11.7876 19.0999 12.6802Z" fill="white"/>
</svg>
