<svg width="24" height="25" viewBox="0 0 24 25" fill="none" xmlns="http://www.w3.org/2000/svg">
<path d="M17.4 3.61035C19.0568 3.61035 20.4 4.9535 20.4 6.61035V11.53C20.0198 11.3357 19.6183 11.1771 19.2 11.0588V8.41035H4.79998V17.4104C4.79998 18.4045 5.60586 19.2104 6.59998 19.2104H11.0484C11.1667 19.6287 11.3253 20.0302 11.5196 20.4104H6.59998C4.94312 20.4104 3.59998 19.0672 3.59998 17.4104V6.61035C3.59998 4.9535 4.94312 3.61035 6.59998 3.61035H17.4ZM17.4 4.81035H6.59998C5.60586 4.81035 4.79998 5.61624 4.79998 6.61035V7.21035H19.2V6.61035C19.2 5.61624 18.3941 4.81035 17.4 4.81035ZM16.65 15.0104C16.65 14.5961 16.9858 14.2604 17.4 14.2604C17.8142 14.2604 18.15 14.5961 18.15 15.0104C18.15 15.4246 17.8142 15.7604 17.4 15.7604C16.9858 15.7604 16.65 15.4246 16.65 15.0104ZM18 19.8104C18 20.1417 17.7313 20.4104 17.4 20.4104C17.0686 20.4104 16.8 20.1417 16.8 19.8104V17.4104C16.8 17.079 17.0686 16.8104 17.4 16.8104C17.7313 16.8104 18 17.079 18 17.4104V19.8104ZM12 17.4104C12 14.428 14.4176 12.0104 17.4 12.0104C20.3823 12.0104 22.8 14.428 22.8 17.4104C22.8 20.3927 20.3823 22.8104 17.4 22.8104C14.4176 22.8104 12 20.3927 12 17.4104ZM13.2 17.4104C13.2 19.7299 15.0804 21.6104 17.4 21.6104C19.7196 21.6104 21.6 19.7299 21.6 17.4104C21.6 15.0908 19.7196 13.2104 17.4 13.2104C15.0804 13.2104 13.2 15.0908 13.2 17.4104Z" fill="white"/>
</svg>
