<svg width="20" height="21" viewBox="0 0 20 21" fill="none" xmlns="http://www.w3.org/2000/svg">
<path d="M16 0.0107422C16.1739 0.0107422 16.3412 0.0711141 16.4743 0.179767L16.5498 0.250655L19.8221 3.77898L19.8528 3.81788C19.9545 3.95355 20.0004 4.1074 20.0004 4.25849L19.9989 6.17748C19.9989 7.17166 19.6204 8.07742 18.9996 8.7585L18.9988 19.2607C18.9988 19.6404 18.7166 19.9542 18.3505 20.0039L18.2488 20.0107H1.75126C1.37156 20.0107 1.05777 19.7286 1.0081 19.3625L1.00126 19.2607L1.00047 8.7585C0.427415 8.12981 0.0607885 7.30968 0.00777531 6.40527L0.00111771 6.17748L0.000920297 4.30171C-0.00715016 4.1644 0.0225032 4.02313 0.096853 3.89387L0.162115 3.79841L0.201289 3.75267L3.45018 0.250655C3.56845 0.123174 3.72652 0.0415551 3.89668 0.01789L4.00001 0.0107422H16ZM13.082 8.45282L13.07 8.47057C12.3711 9.40513 11.2556 10.01 9.99883 10.01C8.735 10.01 7.61405 9.39832 6.91593 8.4548C6.21847 9.39832 5.09752 10.01 3.83369 10.01C3.36459 10.01 2.91517 9.92577 2.49975 9.77153L2.50101 18.5097H3.99963L4.00001 11.7618C4.00001 11.3821 4.28217 11.0683 4.64824 11.0186L4.75001 11.0118H9.24596C9.62566 11.0118 9.93945 11.2939 9.98911 11.66L9.99596 11.7618L9.99563 18.5097H17.498L17.4983 9.77228C17.0834 9.92604 16.6347 10.01 16.1663 10.01C14.9016 10.01 13.78 9.39746 13.082 8.45282ZM8.49501 12.5117H5.50001V18.5097H8.49501V12.5117ZM15.2547 11.0118C15.6344 11.0118 15.9482 11.2939 15.9979 11.66L16.0047 11.7618V15.2638C16.0047 15.6435 15.7226 15.9573 15.3565 16.0069L15.2547 16.0138H11.7533C11.3736 16.0138 11.0598 15.7316 11.0101 15.3655L11.0033 15.2638V11.7618C11.0033 11.3821 11.2855 11.0683 11.6515 11.0186L11.7533 11.0118H15.2547ZM14.504 12.5117H12.503V14.5137H14.504V12.5117ZM6.16601 5.01274H1.50101L1.50112 6.17748L1.50729 6.34851L1.53567 6.57974L1.56842 6.73603L1.6178 6.908L1.67215 7.05584L1.71283 7.14984C1.744 7.21771 1.77833 7.28383 1.81564 7.34801L1.91858 7.50947L1.97286 7.58418L2.10163 7.73984L2.24341 7.88392L2.33965 7.96885L2.38174 8.00317C2.69627 8.25364 3.07698 8.42454 3.49342 8.48541L3.67399 8.50467L3.83369 8.51005C5.06826 8.51005 6.07881 7.55094 6.16088 6.33718L6.16626 6.17748L6.16601 5.01274ZM12.331 5.01274H7.66601L7.66626 6.17748C7.66626 7.35837 8.54379 8.3343 9.68232 8.48876L9.83913 8.50467L9.99883 8.51005C11.2334 8.51005 12.244 7.55094 12.326 6.33718L12.3314 6.17748L12.331 5.01274ZM18.498 5.01274H13.833L13.8338 6.17748C13.8338 7.35837 14.7113 8.3343 15.8498 8.48876L16.0066 8.50467L16.1663 8.51005C16.7306 8.51005 17.2481 8.30966 17.6516 7.97616L17.7413 7.89805L17.8572 7.78434L18.0033 7.61515C18.0574 7.54619 18.1076 7.47411 18.1537 7.39923L18.2573 7.21253L18.3202 7.07457L18.3784 6.91948L18.4082 6.82388L18.4464 6.67182L18.4748 6.51426L18.4928 6.34752L18.4989 6.17748L18.498 5.01274ZM7.06163 1.50974H4.32701L2.46901 3.51274H6.44563L7.06163 1.50974ZM11.3686 1.50974H8.63063L8.01463 3.51274H11.9846L11.3686 1.50974ZM15.672 1.50974H12.9376L13.5536 3.51274H17.53L15.672 1.50974Z" fill="white"/>
</svg>
