<svg width="28" height="28" viewBox="0 0 28 28" fill="none" xmlns="http://www.w3.org/2000/svg">
<path d="M11.3194 8.66549C11.1241 8.47023 10.8075 8.47023 10.6123 8.66549L7.61227 11.6655C7.417 11.8608 7.417 12.1773 7.61227 12.3726C7.80753 12.5679 8.12411 12.5679 8.31937 12.3726L10.4658 10.2261V20.019C10.4658 20.2952 10.6897 20.519 10.9658 20.519C11.242 20.519 11.4658 20.2952 11.4658 20.019V10.2261L13.6123 12.3726C13.8075 12.5679 14.1241 12.5679 14.3194 12.3726C14.5146 12.1773 14.5146 11.8608 14.3194 11.6655L11.3194 8.66549ZM17.6183 20.3785C17.8121 20.5659 18.1195 20.5659 18.3133 20.3785L21.3133 17.4784C21.5119 17.2865 21.5172 16.97 21.3253 16.7714C21.1334 16.5729 20.8168 16.5675 20.6183 16.7595L18.4658 18.8403L18.4658 9.01914C18.4658 8.743 18.242 8.51914 17.9658 8.51914C17.6897 8.51914 17.4658 8.743 17.4658 9.01914L17.4658 18.8403L15.3133 16.7595C15.1148 16.5675 14.7983 16.5729 14.6063 16.7714C14.4144 16.97 14.4198 17.2865 14.6183 17.4784L17.6183 20.3785Z" fill="#666666"/>
</svg>
