<svg width="28" height="28" viewBox="0 0 28 28" fill="none" xmlns="http://www.w3.org/2000/svg">
<path d="M11.7143 15.2475C12.1277 15.2475 12.4628 14.9123 12.4628 14.499C12.4628 14.0856 12.1277 13.7505 11.7143 13.7505C11.3009 13.7505 10.9658 14.0856 10.9658 14.499C10.9658 14.9123 11.3009 15.2475 11.7143 15.2475ZM12.4628 16.999C12.4628 17.4123 12.1277 17.7475 11.7143 17.7475C11.3009 17.7475 10.9658 17.4123 10.9658 16.999C10.9658 16.5856 11.3009 16.2505 11.7143 16.2505C12.1277 16.2505 12.4628 16.5856 12.4628 16.999ZM14.4663 15.2475C14.8796 15.2475 15.2147 14.9123 15.2147 14.499C15.2147 14.0856 14.8796 13.7505 14.4663 13.7505C14.0529 13.7505 13.7178 14.0856 13.7178 14.499C13.7178 14.9123 14.0529 15.2475 14.4663 15.2475ZM15.2147 16.999C15.2147 17.4123 14.8796 17.7475 14.4663 17.7475C14.0529 17.7475 13.7178 17.4123 13.7178 16.999C13.7178 16.5856 14.0529 16.2505 14.4663 16.2505C14.8796 16.2505 15.2147 16.5856 15.2147 16.999ZM17.2143 15.2475C17.6277 15.2475 17.9628 14.9123 17.9628 14.499C17.9628 14.0856 17.6277 13.7505 17.2143 13.7505C16.8009 13.7505 16.4658 14.0856 16.4658 14.499C16.4658 14.9123 16.8009 15.2475 17.2143 15.2475ZM20.4658 10.7505C20.4658 9.36978 19.3465 8.25049 17.9658 8.25049H10.9658C9.58511 8.25049 8.46582 9.36978 8.46582 10.7505V17.7505C8.46582 19.1312 9.58511 20.2505 10.9658 20.2505H17.9658C19.3465 20.2505 20.4658 19.1312 20.4658 17.7505V10.7505ZM9.46582 12.2505H19.4658V17.7505C19.4658 18.5789 18.7942 19.2505 17.9658 19.2505H10.9658C10.1374 19.2505 9.46582 18.5789 9.46582 17.7505V12.2505ZM10.9658 9.25049H17.9658C18.7942 9.25049 19.4658 9.92206 19.4658 10.7505V11.2505H9.46582V10.7505C9.46582 9.92206 10.1374 9.25049 10.9658 9.25049Z" fill="#666666"/>
</svg>
