<svg width="28" height="29" viewBox="0 0 28 29" fill="none" xmlns="http://www.w3.org/2000/svg">
<path d="M8.06592 11.1875C8.06592 10.0829 8.96135 9.1875 10.0659 9.1875H10.8659C11.0868 9.1875 11.2659 9.36659 11.2659 9.5875C11.2659 9.80841 11.0868 9.9875 10.8659 9.9875H10.0659C9.40318 9.9875 8.86592 10.5248 8.86592 11.1875V11.9875C8.86592 12.2084 8.68683 12.3875 8.46592 12.3875C8.245 12.3875 8.06592 12.2084 8.06592 11.9875V11.1875ZM17.6659 9.5875C17.6659 9.36659 17.845 9.1875 18.0659 9.1875H18.8659C19.9705 9.1875 20.8659 10.0829 20.8659 11.1875V11.9875C20.8659 12.2084 20.6868 12.3875 20.4659 12.3875C20.245 12.3875 20.0659 12.2084 20.0659 11.9875V11.1875C20.0659 10.5248 19.5287 9.9875 18.8659 9.9875H18.0659C17.845 9.9875 17.6659 9.80841 17.6659 9.5875ZM8.46592 17.1875C8.68683 17.1875 8.86592 17.3666 8.86592 17.5875V18.3875C8.86592 19.0502 9.40318 19.5875 10.0659 19.5875H10.8659C11.0868 19.5875 11.2659 19.7666 11.2659 19.9875C11.2659 20.2084 11.0868 20.3875 10.8659 20.3875H10.0659C8.96135 20.3875 8.06592 19.4921 8.06592 18.3875V17.5875C8.06592 17.3666 8.245 17.1875 8.46592 17.1875ZM20.4659 17.1875C20.6868 17.1875 20.8659 17.3666 20.8659 17.5875V18.3875C20.8659 19.4921 19.9705 20.3875 18.8659 20.3875H18.0659C17.845 20.3875 17.6659 20.2084 17.6659 19.9875C17.6659 19.7666 17.845 19.5875 18.0659 19.5875H18.8659C19.5287 19.5875 20.0659 19.0502 20.0659 18.3875V17.5875C20.0659 17.3666 20.245 17.1875 20.4659 17.1875ZM10.8659 11.5875C11.0868 11.5875 11.2659 11.7666 11.2659 11.9875V17.5875C11.2659 17.8084 11.0868 17.9875 10.8659 17.9875C10.645 17.9875 10.4659 17.8084 10.4659 17.5875V11.9875C10.4659 11.7666 10.645 11.5875 10.8659 11.5875ZM13.6659 11.9875C13.6659 11.7666 13.4868 11.5875 13.2659 11.5875C13.045 11.5875 12.8659 11.7666 12.8659 11.9875V17.5875C12.8659 17.8084 13.045 17.9875 13.2659 17.9875C13.4868 17.9875 13.6659 17.8084 13.6659 17.5875V11.9875ZM15.6659 11.5875C15.8868 11.5875 16.0659 11.7666 16.0659 11.9875V17.5875C16.0659 17.8084 15.8868 17.9875 15.6659 17.9875C15.445 17.9875 15.2659 17.8084 15.2659 17.5875V11.9875C15.2659 11.7666 15.445 11.5875 15.6659 11.5875ZM18.4659 11.9875C18.4659 11.7666 18.2868 11.5875 18.0659 11.5875C17.845 11.5875 17.6659 11.7666 17.6659 11.9875V17.5875C17.6659 17.8084 17.845 17.9875 18.0659 17.9875C18.2868 17.9875 18.4659 17.8084 18.4659 17.5875V11.9875Z" fill="#666666"/>
</svg>
