<svg width="28" height="28" viewBox="0 0 28 28" fill="none" xmlns="http://www.w3.org/2000/svg">
<path d="M14.4657 14.1532C14.2448 14.1532 14.0657 14.3323 14.0657 14.5532V16.9532C14.0657 17.1741 14.2448 17.3532 14.4657 17.3532C14.6866 17.3532 14.8657 17.1741 14.8657 16.9532V14.5532C14.8657 14.3323 14.6866 14.1532 14.4657 14.1532ZM11.2657 12.9532C11.2657 12.7323 11.4448 12.5532 11.6657 12.5532C11.8866 12.5532 12.0657 12.7323 12.0657 12.9532V16.9532C12.0657 17.1741 11.8866 17.3532 11.6657 17.3532C11.4448 17.3532 11.2657 17.1741 11.2657 16.9532V12.9532ZM17.2657 10.9532C17.0448 10.9532 16.8657 11.1323 16.8657 11.3532V16.9532C16.8657 17.1741 17.0448 17.3532 17.2657 17.3532C17.4866 17.3532 17.6657 17.1741 17.6657 16.9532V11.3532C17.6657 11.1323 17.4866 10.9532 17.2657 10.9532ZM8.86572 10.1532C8.86572 9.26957 9.58207 8.55322 10.4657 8.55322H18.4657C19.3494 8.55322 20.0657 9.26957 20.0657 10.1532V18.1532C20.0657 19.0369 19.3494 19.7532 18.4657 19.7532H10.4657C9.58207 19.7532 8.86572 19.0369 8.86572 18.1532V10.1532ZM9.66572 10.1532V18.1532C9.66572 18.5951 10.0239 18.9532 10.4657 18.9532H18.4657C18.9076 18.9532 19.2657 18.5951 19.2657 18.1532V10.1532C19.2657 9.7114 18.9076 9.35322 18.4657 9.35322H10.4657C10.0239 9.35322 9.66572 9.71139 9.66572 10.1532Z" fill="#666666"/>
</svg>
