<svg width="28" height="29" viewBox="0 0 28 29" fill="none" xmlns="http://www.w3.org/2000/svg">
<path d="M10.2158 8.88477C9.24932 8.88477 8.46582 9.66827 8.46582 10.6348V11.6348C8.46582 12.1244 8.66694 12.5671 8.99107 12.8848C8.66694 13.2024 8.46582 13.6451 8.46582 14.1348V15.6348C8.46582 16.1244 8.66694 16.5671 8.99107 16.8848C8.66694 17.2024 8.46582 17.6451 8.46582 18.1348V19.1348C8.46582 20.1013 9.24932 20.8848 10.2158 20.8848H18.7158C19.6823 20.8848 20.4658 20.1013 20.4658 19.1348V18.1348C20.4658 17.6451 20.2647 17.2024 19.9406 16.8848C20.2647 16.5671 20.4658 16.1244 20.4658 15.6348V14.1348C20.4658 13.6451 20.2647 13.2024 19.9406 12.8848C20.2647 12.5671 20.4658 12.1244 20.4658 11.6348V10.6348C20.4658 9.66827 19.6823 8.88477 18.7158 8.88477H10.2158ZM9.46582 18.1348C9.46582 17.7206 9.80161 17.3848 10.2158 17.3848H11.4658V19.8848H10.2158C9.80161 19.8848 9.46582 19.549 9.46582 19.1348V18.1348ZM12.4658 19.8848V17.3848H18.7158C19.13 17.3848 19.4658 17.7206 19.4658 18.1348V19.1348C19.4658 19.549 19.13 19.8848 18.7158 19.8848H12.4658ZM12.4658 16.3848V13.3848H18.7158C19.13 13.3848 19.4658 13.7206 19.4658 14.1348V15.6348C19.4658 16.049 19.13 16.3848 18.7158 16.3848H12.4658ZM12.4658 12.3848V9.88477H18.7158C19.13 9.88477 19.4658 10.2206 19.4658 10.6348V11.6348C19.4658 12.049 19.13 12.3848 18.7158 12.3848H12.4658ZM11.4658 9.88477V12.3848H10.2158C9.80161 12.3848 9.46582 12.049 9.46582 11.6348V10.6348C9.46582 10.2206 9.80161 9.88477 10.2158 9.88477H11.4658ZM11.4658 13.3848V16.3848H10.2158C9.80161 16.3848 9.46582 16.049 9.46582 15.6348V14.1348C9.46582 13.7206 9.80161 13.3848 10.2158 13.3848H11.4658Z" fill="#666666"/>
</svg>
