<svg width="28" height="28" viewBox="0 0 28 28" fill="none" xmlns="http://www.w3.org/2000/svg">
<path d="M15.9658 13.0562C15.9658 12.2277 15.2942 11.5562 14.4658 11.5562C13.6374 11.5562 12.9658 12.2277 12.9658 13.0562C12.9658 13.8846 13.6374 14.5562 14.4658 14.5562C15.2942 14.5562 15.9658 13.8846 15.9658 13.0562ZM20.4658 13.0562C20.4658 15.9301 17.3686 19.0724 15.6247 20.6139C14.9563 21.2047 13.9753 21.2047 13.307 20.6139C11.5631 19.0724 8.46582 15.9301 8.46582 13.0562C8.46582 9.74244 11.1521 7.05615 14.4658 7.05615C17.7795 7.05615 20.4658 9.74244 20.4658 13.0562ZM19.4658 13.0562C19.4658 10.2947 17.2272 8.05615 14.4658 8.05615C11.7044 8.05615 9.46582 10.2947 9.46582 13.0562C9.46582 14.1646 10.0805 15.4515 11.0355 16.7388C11.9695 17.9977 13.1228 19.1164 13.9693 19.8647C14.2594 20.1211 14.6723 20.1211 14.9624 19.8647C15.8089 19.1164 16.9622 17.9977 17.8961 16.7388C18.8512 15.4515 19.4658 14.1646 19.4658 13.0562Z" fill="#666666"/>
</svg>
