<svg width="28" height="28" viewBox="0 0 28 28" fill="none" xmlns="http://www.w3.org/2000/svg">
<path d="M10.1794 11.6796C9.98884 10.4233 10.8754 9.29216 12.2309 8.8776C12.7301 8.72493 13.262 8.98695 13.4451 9.47579L13.8797 10.6358C14.0227 11.0176 13.9196 11.4479 13.6192 11.7235L12.3267 12.9091C12.1972 13.0278 12.1398 13.2066 12.175 13.3786L12.1865 13.4309C12.1936 13.4621 12.2041 13.5062 12.2183 13.5614C12.2466 13.6717 12.2897 13.8267 12.3501 14.0114C12.4703 14.3787 12.6618 14.8727 12.9468 15.3663C13.2318 15.8599 13.5639 16.2728 13.8219 16.5605C13.9516 16.7051 14.0643 16.82 14.1456 16.8997C14.1863 16.9395 14.2193 16.9707 14.2428 16.9925L14.2829 17.0291C14.4143 17.1456 14.5972 17.1847 14.7647 17.132L16.4377 16.6054C16.8266 16.483 17.2509 16.6089 17.51 16.9237L18.3015 17.8851C18.6309 18.2853 18.5922 18.8727 18.2131 19.2261C17.1759 20.1931 15.75 20.3911 14.7574 19.5936C13.8005 18.8247 12.6743 17.6821 11.7336 16.0649C10.7906 14.4439 10.3637 12.8946 10.1794 11.6796ZM13.2224 13.4444L14.2951 12.4605C14.896 11.9093 15.1022 11.0485 14.8161 10.2849L14.3815 9.12497C14.013 8.14135 12.9429 7.61413 11.9385 7.92132C10.2559 8.43593 8.90481 9.94477 9.19071 11.8296C9.39038 13.1459 9.8522 14.8194 10.8692 16.5677C11.8821 18.3089 13.0961 19.5415 14.131 20.3731C15.6185 21.5683 17.6051 21.1601 18.895 19.9575C19.6605 19.2438 19.7387 18.0576 19.0735 17.2495L18.282 16.2881C17.7638 15.6586 16.9153 15.4067 16.1375 15.6515L14.749 16.0885C14.6956 16.0337 14.6338 15.968 14.5663 15.8928C14.3382 15.6384 14.0528 15.282 13.8128 14.8663C13.5728 14.4506 13.4068 14.0252 13.3006 13.7005C13.2692 13.6045 13.2433 13.5181 13.2224 13.4444Z" fill="#666666"/>
</svg>
