<svg width="28" height="29" viewBox="0 0 28 29" fill="none" xmlns="http://www.w3.org/2000/svg">
<path d="M10.9658 10.6904C10.6897 10.6904 10.4658 10.9143 10.4658 11.1904C10.4658 11.4666 10.6897 11.6904 10.9658 11.6904H17.9658C18.242 11.6904 18.4658 11.4666 18.4658 11.1904C18.4658 10.9143 18.242 10.6904 17.9658 10.6904H10.9658ZM10.4658 13.1904C10.4658 12.9143 10.6897 12.6904 10.9658 12.6904H17.9658C18.242 12.6904 18.4658 12.9143 18.4658 13.1904C18.4658 13.4666 18.242 13.6904 17.9658 13.6904H10.9658C10.6897 13.6904 10.4658 13.4666 10.4658 13.1904ZM10.9658 14.6904C10.6897 14.6904 10.4658 14.9143 10.4658 15.1904C10.4658 15.4666 10.6897 15.6904 10.9658 15.6904H14.9658C15.242 15.6904 15.4658 15.4666 15.4658 15.1904C15.4658 14.9143 15.242 14.6904 14.9658 14.6904H10.9658ZM8.46582 8.19043C8.46582 7.362 9.13739 6.69043 9.96582 6.69043H18.9658C19.7942 6.69043 20.4658 7.362 20.4658 8.19043V21.1904C20.4658 22.0189 19.7942 22.6904 18.9658 22.6904H9.96582C9.13739 22.6904 8.46582 22.0189 8.46582 21.1904V8.19043ZM9.96582 7.69043C9.68968 7.69043 9.46582 7.91429 9.46582 8.19043V21.1904C9.46582 21.4666 9.68968 21.6904 9.96582 21.6904H18.9658C19.242 21.6904 19.4658 21.4666 19.4658 21.1904V8.19043C19.4658 7.91429 19.242 7.69043 18.9658 7.69043H9.96582Z" fill="#666666"/>
</svg>
